<?xml version="1.0" encoding="utf-8"?>
<!DOCTYPE svg PUBLIC "-//W3C//DTD SVG 1.0//EN" "http://www.w3.org/TR/2001/REC-SVG-20010904/DTD/svg10.dtd">
<svg version="1.0" xmlns="http://www.w3.org/2000/svg" width="813px" height="313px" viewBox="0 0 813 313" preserveAspectRatio="xMidYMid meet">
 <g fill="#ffffff">
  <path d="M112.62 271.12 c3.96 -1.47 9.38 -6.69 11.24 -10.75 0.73 -1.61 1.22 -3.03 1.07 -3.18 -0.10 -0.10 -9.23 -0.15 -20.33 -0.10 l-20.13 0.15 1.76 3.52 c4.74 9.43 16.47 14.07 26.38 10.36z m278.59 -5.67 l-4.74 -0.20 0.10 -7.77 c0.10 -6.01 0 -7.82 -0.44 -7.82 -0.49 0 -0.64 1.86 -0.64 7.72 0 4.25 0.15 7.92 0.34 8.06 0.15 0.20 2.54 0.29 5.23 0.24 l4.93 -0.10 -4.79 -0.15z m12.36 -5.57 l0 -5.33 1.47 0 c0.83 0 1.47 -0.10 1.47 -0.20 0 -0.10 -0.44 -1.22 -0.98 -2.44 -0.68 -1.61 -1.22 -2.25 -1.95 -2.25 -0.93 0 -0.98 0.29 -0.98 8.11 0 5.23 0.15 7.96 0.49 7.77 0.29 -0.20 0.49 -2.59 0.49 -5.67z m16.61 -2.20 c0 -8.01 0 -8.06 -1.07 -7.92 -0.68 0.10 -1.32 0.83 -1.91 2.25 l-0.88 2.05 1.76 0 1.71 0 -0.34 4.54 c-0.29 3.96 -0.05 7.18 0.54 7.18 0.10 0 0.20 -3.66 0.20 -8.11z m11.24 1.71 c1.76 -0.24 1.86 -0.29 0.64 -0.34 -2.98 -0.15 -3.08 -0.34 -3.08 -4.74 0 -2.78 0.20 -4.15 0.64 -4.30 0.29 -0.15 0.10 -0.29 -0.49 -0.29 -1.12 -0.05 -1.12 0 -1.12 7.67 0 7.96 0.54 10.94 0.98 5.37 l0.24 -3.08 2.20 -0.29z m22.87 6.06 c-0.49 -0.10 -1.37 -0.10 -1.95 0 -0.64 0.10 -0.24 0.20 0.83 0.20 1.07 0.05 1.56 -0.05 1.12 -0.20z m18.18 -0.93 c0.73 -1.91 0.64 -2.15 -0.98 -2.15 -1.37 0 -1.47 0.10 -1.17 1.37 0.59 2.49 1.42 2.78 2.15 0.78z m10.90 0.93 c0.15 -0.24 0.39 -1.12 0.59 -1.95 0.29 -1.56 0.24 -1.61 -1.22 -1.61 -1.47 0 -1.51 0.05 -1.22 1.61 0.44 1.86 0.64 2.30 1.22 2.30 0.24 0 0.54 -0.15 0.64 -0.34z m17.05 0 l-4.54 -0.20 0.15 -7.77 c0.10 -6.01 0 -7.82 -0.44 -7.82 -0.49 0 -0.64 1.95 -0.64 8.06 l0 8.06 5.03 -0.10 4.98 -0.10 -4.54 -0.15z m12.70 -2.93 l0.15 -3.32 2.78 -0.15 c2.59 -0.15 2.83 -0.05 3.52 1.22 l0.73 1.37 0.05 -1.56 0 -1.61 -3.66 0 -3.66 0 0 -4.15 0 -4.10 3.57 -0.20 3.52 -0.15 -4.01 -0.10 -4.06 -0.10 0 8.06 c0 4.79 0.20 8.06 0.49 8.06 0.24 0 0.49 -1.47 0.59 -3.27z m19.45 -4.79 c0 -5.03 -0.20 -8.06 -0.49 -8.06 -0.29 0 -0.49 3.03 -0.49 8.06 0 5.03 0.20 8.06 0.49 8.06 0.29 0 0.49 -3.03 0.49 -8.06z m10.50 -3.27 l1.66 -0.15 -1.32 -2.05 c-0.73 -1.17 -1.71 -2.10 -2.15 -2.10 -0.78 0 -0.88 0.59 -0.88 5.28 0 2.88 0.20 6.45 0.39 7.92 0.29 2.30 0.34 1.91 0.49 -3.03 l0.15 -5.72 1.66 -0.15z m10.50 3.27 c0 -5.03 -0.20 -8.06 -0.49 -8.06 -0.29 0 -0.49 2.20 -0.49 5.57 l0 5.62 -1.42 0.15 -1.47 0.15 1.76 2.35 c0.93 1.27 1.81 2.30 1.91 2.30 0.10 0 0.20 -3.62 0.20 -8.06z m16.27 7.72 c-0.64 -0.10 -1.61 -0.10 -2.20 0 -0.64 0.10 -0.15 0.20 1.07 0.20 1.22 0 1.71 -0.10 1.12 -0.20z m21.84 -7.72 c0 -5.03 -0.20 -8.06 -0.49 -8.06 -0.29 0 -0.49 3.03 -0.49 8.06 0 5.03 0.20 8.06 0.49 8.06 0.29 0 0.49 -3.03 0.49 -8.06z m12.36 7.72 l-2.59 -0.20 0 -7.52 0 -7.52 3.32 -0.20 3.27 -0.15 -4.01 -0.10 -4.06 -0.10 0 7.72 c0 4.25 0.15 7.92 0.34 8.06 0.15 0.20 1.66 0.29 3.27 0.24 l2.98 -0.10 -2.54 -0.15z m22.43 0 l-4.54 -0.20 0.15 -7.77 c0.10 -6.01 0 -7.82 -0.44 -7.82 -0.49 0 -0.64 1.95 -0.64 8.06 l0 8.06 5.03 -0.10 4.98 -0.10 -4.54 -0.15z m-214.15 -2.44 c0.05 -0.34 -0.39 -0.64 -0.93 -0.64 -1.12 0 -1.12 0 -0.44 1.81 0.49 1.27 0.59 1.32 0.93 0.39 0.24 -0.54 0.44 -1.27 0.44 -1.56z m163.14 -2 c0.10 -1.56 -0.05 -2.54 -0.34 -2.54 -0.29 0 -0.54 0.88 -0.54 1.91 0 1.07 -0.15 2.30 -0.34 2.78 -0.20 0.59 -0.10 0.73 0.39 0.59 0.44 -0.15 0.73 -1.12 0.83 -2.74z m73.63 -1.37 l-1.17 -2.88 -0.05 2.10 0 2.05 -3.37 0 -3.42 0 -0.15 -1.76 -0.15 -1.81 -0.78 2.15 -0.78 2.15 5.03 -0.15 c4.30 -0.15 5.13 -0.05 5.37 0.64 0.20 0.44 0.39 0.68 0.49 0.59 0.10 -0.10 -0.34 -1.47 -1.03 -3.08z m20.28 2.05 c0 -0.39 -0.39 -1.07 -0.83 -1.61 -0.49 -0.49 -0.73 -0.68 -0.49 -0.44 0.20 0.29 0.34 1.12 0.34 1.91 0 0.78 0.20 1.27 0.49 1.07 0.29 -0.15 0.49 -0.59 0.49 -0.93z m-222.79 -3.71 l-0.24 -4.15 -0.64 2 c-0.34 1.12 -0.44 2.44 -0.29 2.93 0.54 1.76 1.32 3.66 1.37 3.52 0.05 -0.10 -0.05 -2 -0.20 -4.30z m14.61 -0.49 c0 -0.68 -0.29 -1.86 -0.68 -2.69 -0.64 -1.37 -0.64 -1.22 -0.64 2.69 0 3.91 0 4.06 0.64 2.69 0.39 -0.78 0.68 -2 0.68 -2.69z m100.65 0.15 l-0.05 -3.81 -0.73 1.66 c-0.59 1.42 -0.59 2.05 -0.10 3.81 0.29 1.17 0.64 2.10 0.73 2.10 0.10 0 0.20 -1.71 0.15 -3.76z m51.69 -2.10 l-0.73 -1.71 0 3.91 0 3.91 0.73 -2.20 c0.64 -1.95 0.64 -2.39 0 -3.91z m-174.18 -2.15 c-0.44 -0.88 -0.54 -0.78 -0.54 0.93 0 1.61 0.05 1.81 0.49 1.03 0.39 -0.59 0.39 -1.22 0.05 -1.95z m83.94 -0.20 c-0.34 -0.64 -0.44 -0.39 -0.44 1.12 0 1.71 0.05 1.81 0.49 0.83 0.29 -0.73 0.24 -1.47 -0.05 -1.95z m135.34 0.05 c0 -1.03 -0.15 -1.17 -0.44 -0.68 -0.24 0.39 -0.34 0.98 -0.20 1.37 0.39 1.03 0.64 0.73 0.64 -0.68z m-180.38 -1.56 c-0.54 -2.10 -1.56 -2.25 -2.05 -0.39 -0.49 1.91 -0.34 2.30 1.12 2.30 1.42 0 1.42 0 0.93 -1.91z m168.17 1.22 c0 -0.05 -0.24 -0.83 -0.54 -1.71 -0.73 -2.10 -2.10 -2 -2.74 0.20 l-0.54 1.71 1.91 0 c1.03 0 1.91 -0.10 1.91 -0.20z m-192.11 -3.57 c-0.49 -0.10 -1.27 -0.10 -1.71 0 -0.49 0.15 -0.10 0.24 0.83 0.24 0.93 0 1.32 -0.10 0.88 -0.24z m115.31 0 c-0.49 -0.10 -1.27 -0.10 -1.71 0 -0.49 0.15 -0.10 0.24 0.83 0.24 0.93 0 1.32 -0.10 0.88 -0.24z m-428.39 -1.42 c2.05 -1.76 3.03 -3.76 2.49 -5.18 -0.54 -1.42 -2.35 -3.13 -4.01 -3.71 -0.78 -0.34 -13.39 -0.39 -34.88 -0.24 -33.27 0.29 -33.61 0.29 -35.62 1.37 -1.12 0.59 -2.35 1.61 -2.74 2.35 -0.64 1.17 -0.64 1.47 0.20 2.98 0.54 1.03 1.71 2.10 2.93 2.74 1.95 0.98 2.78 0.98 36.06 0.98 l34.01 0 1.56 -1.27z m-0.24 -17.25 c0.83 -0.44 1.86 -1.61 2.35 -2.64 0.88 -1.76 0.88 -1.86 0 -3.42 -1.95 -3.42 -0.49 -3.27 -38.26 -3.27 -32.20 0 -34.05 0.05 -35.67 0.93 -0.93 0.49 -2.10 1.56 -2.59 2.39 -0.78 1.37 -0.83 1.66 -0.15 3.18 1.51 3.66 -0.20 3.47 34.25 3.76 34.74 0.29 37.96 0.24 40.06 -0.93z m331.50 -13.97 l0 -14.90 -2.69 0 -2.69 0 0 14.90 0 14.90 2.69 0 2.69 0 0 -14.90z m15.63 6.84 l0 -8.06 1.91 0 c1.91 0 1.95 0.05 7.04 6.99 2.78 3.81 5.37 7.43 5.77 8.06 0.54 0.88 1.12 1.07 2.98 1.07 l2.35 0 0 -14.90 0 -14.90 -2.69 0 -2.69 0 0 8.31 0 8.31 -1.86 0 c-1.81 0 -1.95 -0.15 -6.06 -5.72 -2.30 -3.18 -4.89 -6.89 -5.81 -8.31 -1.61 -2.44 -1.71 -2.54 -3.96 -2.54 l-2.35 -0.05 0 14.90 0 14.90 2.69 0 2.69 0 0 -8.06z m46.90 6.50 c6.99 -3.22 10.65 -10.75 8.35 -17.15 -2.64 -7.57 -9.14 -11.04 -20.67 -11.09 l-4.79 0 0 14.95 0 14.95 7.23 -0.20 c6.40 -0.20 7.48 -0.34 9.87 -1.47z m22.72 1.07 c0.15 -0.24 0.15 -6.94 -0.05 -14.90 l-0.34 -14.41 -2.39 0 -2.35 0 0 14.90 0 14.90 2.39 0 c1.37 0 2.59 -0.20 2.74 -0.49z m13.14 -2.54 l1.03 -2.83 7.38 0 7.43 0 1.07 2.93 1.07 2.93 2.44 0 c1.76 0 2.39 -0.15 2.20 -0.59 -0.15 -0.34 -2.74 -7.08 -5.77 -14.90 l-5.57 -14.32 -2.49 0 -2.49 0 -5.86 14.95 -5.91 14.90 2.25 -0.15 2.25 -0.15 0.98 -2.78z m-121.36 -12.12 c0 -0.98 -0.34 -0.98 -97.47 -0.98 -97.13 0 -97.47 0 -97.47 0.98 0 0.98 0.34 0.98 97.47 0.98 97.13 0 97.47 0 97.47 -0.98z m355.20 0 c0 -0.98 -0.34 -0.98 -97.96 -0.98 -97.62 0 -97.96 0 -97.96 0.98 0 0.98 0.34 0.98 97.96 0.98 97.62 0 97.96 0 97.96 -0.98z m-660.22 -7.92 c2.64 -13.39 7.77 -22.08 21.40 -36.06 7.67 -7.92 10.50 -11.29 13.78 -16.61 3.47 -5.67 4.49 -7.62 6.69 -13.05 9.63 -23.45 9.04 -45.49 -1.91 -69.72 l-1.27 -2.93 -5.28 5.33 -5.23 5.37 1.42 3.42 c3.47 8.40 5.08 19.45 4.54 30.78 -0.39 8.31 -1.37 13.83 -3.76 21.01 -3.62 10.90 -8.26 18.32 -17.98 28.73 -3.18 3.42 -7.04 7.96 -8.55 10.11 -3.76 5.18 -7.72 13.09 -9.77 19.49 l-1.71 5.18 -10.75 0.15 -10.80 0.10 0 7.08 0 7.04 4.54 0.20 c2.44 0.10 8.75 0.15 13.97 0.15 l9.53 -0.05 1.12 -5.72z m-38.94 -1.61 l0 -7.08 -14.56 0 -14.61 0 -0.59 -2.05 c-1.66 -5.52 -5.42 -12.65 -9.97 -18.96 -3.22 -4.35 -3.13 -5.03 1.27 -10.21 1.95 -2.30 6.50 -7.67 10.06 -11.87 l6.45 -7.72 2.44 0 c2.35 0 2.39 0 2.39 1.56 0 0.83 -1.66 9.33 -3.71 18.86 -2 9.53 -3.57 17.44 -3.42 17.59 0.15 0.15 0.64 -0.59 1.07 -1.66 0.44 -1.03 2.49 -5.86 4.59 -10.70 2.10 -4.84 5.03 -11.63 6.45 -15.15 l2.59 -6.35 2.25 -0.15 2.25 -0.15 0.34 4.54 c0.20 2.49 0.88 11.14 1.56 19.20 0.64 8.06 1.17 14.80 1.17 15.05 0 0.20 0.44 0.34 0.93 0.34 1.17 0 1.12 0.44 2.49 -17.34 0.54 -7.23 1.17 -15.15 1.37 -17.59 l0.34 -4.40 2.20 -0.15 2.20 -0.10 2.35 5.72 c5.42 13.19 12.26 28.97 12.56 28.97 0.20 0 -0.39 -3.22 -1.22 -7.18 -3.27 -14.85 -6.11 -28.92 -6.11 -30.39 0 -1.47 0.05 -1.51 2.15 -1.51 l2.20 0 8.70 10.50 c4.74 5.77 8.84 10.50 9.04 10.50 1.37 0 0.34 -2.59 -4.98 -12.56 -3.32 -6.11 -6.20 -11.38 -6.45 -11.73 -0.24 -0.29 -0.39 -1.32 -0.29 -2.20 0.15 -1.51 0.29 -1.61 2.15 -1.76 1.81 -0.15 2.98 0.39 11.24 5.33 5.08 2.98 10.02 5.96 10.99 6.60 1.32 0.83 1.91 0.98 2.35 0.54 0.29 -0.29 0.54 -0.64 0.54 -0.83 0 -0.15 -4.40 -4.30 -9.77 -9.28 -9.43 -8.70 -9.77 -9.09 -9.67 -10.75 0.15 -1.66 0.20 -1.71 2.44 -1.86 1.27 -0.10 7.67 0.78 14.32 1.91 10.90 1.81 14.41 2.10 13.14 0.98 -0.24 -0.20 -2.39 -1.22 -4.84 -2.25 -2.39 -1.03 -8.21 -3.47 -12.80 -5.47 l-8.45 -3.66 0 -1.91 c0 -1.56 0.24 -2 1.12 -2.35 0.59 -0.24 7.13 -1.27 14.56 -2.25 7.43 -1.03 13.78 -2 14.12 -2.20 1.12 -0.68 -0.05 -1.47 -2.10 -1.47 -1.12 0 -4.89 -0.34 -8.40 -0.73 -3.47 -0.39 -9.09 -0.83 -12.36 -1.03 l-6.06 -0.34 -12.75 12.65 c-7.04 6.99 -15.49 15.24 -18.76 18.42 -8.50 8.16 -7.04 8.55 -20.37 -5.08 l-10.55 -10.85 -4.25 3.86 c-2.30 2.10 -8.65 8.16 -14.02 13.48 -9.23 8.99 -9.77 9.63 -8.99 10.46 0.73 0.78 0.88 0.78 2.15 -0.24 0.68 -0.54 1.51 -1.03 1.81 -1.03 0.24 0 1.37 -0.73 2.49 -1.61 1.12 -0.88 4.35 -3.08 7.18 -4.89 4.64 -2.93 5.42 -3.27 7.67 -3.27 l2.54 0 0 1.71 c0 1.22 -0.93 3.42 -3.03 7.23 -1.71 3.03 -4.93 8.99 -7.23 13.19 l-4.15 7.67 -1.81 0 c-1.71 0 -2.15 -0.39 -7.77 -6.55 -3.27 -3.62 -6.20 -6.45 -6.50 -6.30 -0.29 0.15 -2.15 2 -4.15 4.10 l-3.62 3.81 6.35 6.64 c12.95 13.53 18.61 24.18 19.98 37.52 l0.34 3.27 19.69 0 19.74 0 0 -7.08z m526.30 -23.31 c3.27 -1.51 5.67 -3.86 7.28 -7.04 1.12 -2.35 1.17 -2.74 1.32 -15.44 l0.15 -13.09 -3.62 0 -3.66 0 -0.20 12.61 c-0.15 10.90 -0.29 12.80 -1.03 14.36 -1.12 2.20 -3.32 3.32 -6.69 3.32 -3.37 0 -5.57 -1.12 -6.64 -3.32 -0.78 -1.56 -0.93 -3.57 -1.07 -14.36 l-0.20 -12.61 -3.62 0 -3.62 0 0 12.17 c0 14.17 0.29 15.73 3.81 19.64 4.69 5.23 11.48 6.64 17.78 3.76z m72.80 0.15 c5.81 -2.78 8.50 -8.26 6.45 -13.14 -1.61 -3.91 -4.30 -5.67 -11.73 -7.72 -5.77 -1.61 -6.55 -2.30 -6.55 -5.57 0 -3.42 1.12 -4.10 6.30 -3.81 2.98 0.20 4.30 0.49 5.96 1.47 l2.15 1.27 1.66 -1.91 c1.81 -2.20 1.66 -2.64 -1.42 -4.59 -7.62 -4.79 -17.54 -2.74 -20.81 4.35 -1.32 2.78 -1.42 4.01 -0.64 6.69 1.32 4.30 4.79 6.74 12.41 8.70 5.33 1.37 6.11 1.95 6.11 4.84 0 3.52 -0.68 4.15 -4.84 4.40 -4.15 0.24 -7.18 -0.49 -9.77 -2.35 l-1.81 -1.32 -1.56 1.86 c-0.88 1.03 -1.56 2 -1.56 2.25 0.05 0.88 4.74 3.86 7.77 4.93 4.01 1.37 8.60 1.27 11.87 -0.34z m-266.96 -4.74 l0.15 -5.42 4.98 -0.24 c5.62 -0.29 7.62 -0.93 10.50 -3.52 7.13 -6.45 4.59 -18.37 -4.49 -21.06 -1.71 -0.54 -4.84 -0.73 -10.65 -0.73 l-8.21 0 0 18.08 0 18.03 2.83 0.20 c5.18 0.34 4.74 0.83 4.89 -5.33z m128.59 -12.95 l0 -18.03 -3.66 0 -3.66 0 0 9.53 0 9.53 -1.66 0 c-1.61 0 -1.95 -0.39 -8.70 -9.53 l-6.99 -9.53 -3.27 0 -3.32 0 0 18.08 0 18.08 3.86 0 3.81 0 -0.24 -9.28 -0.24 -9.28 2 0 2.05 0 6.84 9.19 6.84 9.14 2.83 0.24 c1.51 0.15 2.93 0.20 3.18 0.10 0.20 -0.10 0.34 -8.26 0.34 -18.22z m-286.80 15.29 l0 -2.88 -4.74 -0.29 c-2.64 -0.20 -6.50 -0.34 -8.55 -0.34 l-3.81 0 0 -4.15 0 -4.15 7.57 0 7.57 0 0 -3.42 0 -3.42 -7.57 0 -7.57 0 0 -3.91 0 -3.91 8.55 0 8.55 0 0 -3.42 0 -3.42 -12.46 0 -12.46 0 0 18.08 0 18.08 12.46 0 12.46 0 0 -2.83z m15.63 -6.45 l0 -9.28 1.86 0 c1.86 0 1.91 0.05 8.70 9.28 l6.79 9.23 3.37 0.05 3.37 0 -0.34 -2.98 c-0.15 -1.66 -0.29 -9.82 -0.29 -18.13 l0 -15.10 -3.52 0.15 -3.57 0.15 -0.15 9.43 -0.10 9.38 -1.61 0 c-1.51 0 -1.95 -0.49 -7.77 -8.40 -3.37 -4.64 -6.45 -8.94 -6.79 -9.53 -0.59 -0.98 -1.07 -1.12 -3.96 -1.12 l-3.32 0 0 18.08 0 18.08 3.66 0 3.66 0 0 -9.28z m47.39 -5.37 l0 -14.66 4.89 0 4.89 0 0 -3.42 0 -3.42 -13.68 0 -13.68 0 0 3.42 0 3.42 4.89 0 4.89 0 0 14.66 0 14.66 3.91 0 3.91 0 0 -14.66z m23.94 9.04 l0 -5.67 3.76 0.15 3.76 0.15 3.18 5.47 3.22 5.52 3.57 0 c1.91 0 3.52 -0.10 3.52 -0.24 0 -0.10 -1.42 -2.44 -3.18 -5.23 -3.71 -5.81 -4.10 -7.72 -1.76 -8.94 3.22 -1.66 5.67 -6.69 5.23 -10.65 -0.34 -3.13 -2.44 -6.84 -4.74 -8.45 -3.37 -2.30 -4.89 -2.59 -14.71 -2.64 l-9.19 0 0 18.08 0 18.08 3.66 0 3.66 0 0 -5.62z m55.70 2.69 l0 -2.93 -9.14 -0.10 -9.19 -0.15 -0.15 -4.25 -0.15 -4.30 7.96 -0.10 7.96 -0.15 0 -3.18 0 -3.18 -7.92 -0.15 -7.96 -0.10 0 -3.91 0 -3.91 9.28 0 9.28 0 0 -3.42 0 -3.42 -12.70 0 -12.65 0 -0.15 17.74 c-0.10 9.72 -0.10 17.83 0 18.08 0.10 0.20 5.86 0.34 12.85 0.34 l12.65 0 0 -2.93z m49.84 -2.69 l0 -5.62 3.32 0 3.37 0 3.37 5.62 3.37 5.62 3.52 0 c1.95 0 3.57 -0.10 3.57 -0.20 0 -0.15 -1.42 -2.54 -3.18 -5.33 -3.81 -6.16 -3.96 -7.33 -1.22 -9.23 5.62 -3.91 6.35 -12.36 1.47 -17.39 -3.22 -3.37 -5.86 -4.01 -16.12 -4.01 l-8.79 0 0 18.08 0 18.08 3.66 0 3.66 0 0 -5.62z m54.72 2.69 l0 -2.93 -8.89 -0.10 -8.94 -0.15 -0.15 -4.25 -0.15 -4.30 7.96 -0.10 7.96 -0.15 0 -3.18 0 -3.18 -7.92 -0.15 -7.96 -0.10 0 -3.91 0 -3.91 9.04 0 9.04 0 0 -3.42 0 -3.42 -12.70 0 -12.70 0 0 18.08 0 18.08 12.70 0 12.70 0 0 -2.93z m75.24 0 l0 -2.93 -8.01 0 c-4.40 0 -8.70 -0.15 -9.53 -0.29 l-1.56 -0.34 0.15 -3.96 0.15 -3.96 8.21 -0.15 8.16 -0.10 0 -3.42 0 -3.42 -8.31 0 -8.31 0 0 -3.91 0 -3.91 9.53 0 9.53 0 0 -3.42 0 -3.42 -13.19 0 -13.19 0 0 18.08 0 18.08 13.19 0 13.19 0 0 -2.93z m54.72 -2.69 l0 -5.62 3.62 0 3.57 0 2.64 4.59 c3.96 7.04 3.57 6.69 7.62 6.55 l3.52 -0.15 -3.13 -4.89 c-4.06 -6.25 -4.15 -7.52 -0.93 -10.21 6.99 -5.81 4.98 -16.61 -3.57 -19.84 -2.30 -0.83 -3.81 -0.98 -11.63 -0.98 l-9.04 0 0 18.08 0 18.08 3.66 0 3.66 0 0 -5.62z m70.84 -1.71 l0 -7.33 7.57 0 7.57 0 0 7.33 0 7.33 3.91 0 3.91 0 0 -18.08 0 -18.08 -3.91 0 -3.91 0 0 7.33 0 7.33 -7.57 0 -7.57 0 0 -7.33 0 -7.33 -3.91 0 -3.91 0 0 18.08 0 18.08 3.91 0 3.91 0 0 -7.33z m40.06 -10.75 l0 -18.08 -3.91 0 -3.91 0 0 18.08 0 18.08 3.91 0 3.91 0 0 -18.08z m17.10 12.75 l0 -5.28 5.08 -0.24 c4.30 -0.20 5.52 -0.44 7.87 -1.56 8.06 -3.96 9.43 -14.66 2.64 -20.47 -3.27 -2.83 -5.33 -3.27 -14.95 -3.27 l-8.45 0 0 18.08 0 18.08 3.91 0 3.91 0 0 -5.33z m-703.95 -64.54 c2.10 0 2.15 0.05 12.65 10.55 l10.60 10.60 45.58 -45.78 45.63 -45.73 3.03 0 2.98 0 6.25 7.57 c3.47 4.15 6.30 7.48 6.40 7.38 0.10 -0.05 1.12 -6.94 2.30 -15.24 1.22 -8.31 2.74 -18.71 3.42 -23.06 0.68 -4.40 1.27 -8.31 1.27 -8.65 0 -0.78 1.42 -0.98 -20.03 2.49 -16.27 2.64 -26.92 4.49 -27.17 4.74 -0.10 0.10 3.13 2.88 7.13 6.20 6.89 5.62 7.33 6.11 7.33 7.72 0 1.56 -2.44 4.10 -41.38 42.90 -38.94 38.74 -41.53 41.19 -43.14 41.24 -1.56 0 -2.49 -0.78 -11.82 -10.11 l-10.16 -10.16 -17.93 17.83 c-9.92 9.77 -25.70 25.60 -35.18 35.08 l-17.20 17.30 3.22 4.01 3.18 4.01 30.44 -30.44 30.49 -30.44 2.10 0z m-51.59 21.45 c4.84 -4.79 4.98 -5.03 4.54 -6.50 -1.22 -4.06 -1.91 -10.90 -1.91 -18.37 0 -13.83 1.81 -21.89 7.33 -32.98 3.96 -7.96 8.01 -13.58 13.83 -19.15 10.06 -9.63 21.06 -15.63 34.49 -18.81 6.20 -1.42 23.89 -1.81 30.93 -0.64 10.55 1.76 18.91 4.98 26.68 10.21 2.59 1.76 5.42 3.76 6.20 4.45 l1.51 1.17 4.30 -4.30 4.30 -4.35 -2.83 -2.30 c-11.87 -9.38 -25.50 -15.73 -39.67 -18.42 -4.79 -0.93 -7.18 -1.07 -14.76 -0.98 -15.05 0.15 -25.02 2.59 -38.84 9.48 -8.11 4.06 -15.39 9.23 -21.60 15.44 -12.41 12.31 -20.57 27.60 -24.43 45.98 -1.76 8.31 -1.86 20.52 -0.24 28.39 1.12 5.33 4.45 16.61 4.93 16.61 0.15 0 2.49 -2.25 5.23 -4.93z m363.94 -10.16 c4.45 -1.42 5.81 -2.25 8.79 -5.47 3.22 -3.52 4.89 -6.60 5.91 -10.99 2.39 -10.36 -6.25 -21.74 -18.03 -23.79 -2.49 -0.39 -3.66 -0.39 -4.89 0.05 -0.88 0.34 -2.25 0.59 -2.98 0.59 -2.25 0 -7.82 3.27 -10.55 6.16 -1.37 1.47 -3.18 4.10 -4.06 5.91 -1.42 2.98 -1.56 3.76 -1.56 7.72 0 4.01 0.15 4.74 1.56 7.62 3.57 7.18 9.38 11.43 17.25 12.61 4.20 0.64 5.42 0.59 8.55 -0.39z m189.23 0.24 c3.62 -0.98 6.25 -2.69 9.53 -6.11 7.13 -7.48 8.16 -16.81 2.69 -24.97 -4.69 -7.04 -13.68 -10.94 -21.50 -9.33 -10.90 2.30 -18.96 12.85 -17.39 22.77 1.42 9.19 9.33 16.51 19.20 17.83 4.30 0.54 4.64 0.54 7.48 -0.20z m-317.97 -20.08 l0 -19.84 -4.74 0.15 -4.79 0.15 -0.15 19.69 -0.10 19.64 4.89 0 4.89 0 0 -19.79z m18.66 10.41 l0.15 -9.43 2.49 -0.15 2.44 -0.15 6.06 7.72 c3.32 4.25 6.69 8.55 7.48 9.58 l1.42 1.81 3.86 0 3.86 0 0 -19.69 c0 -10.85 -0.10 -19.84 -0.20 -19.93 -0.10 -0.10 -2.20 -0.15 -4.64 -0.05 l-4.45 0.15 0 10.26 0 10.26 -1.61 -0.15 c-1.47 -0.15 -2.35 -1.03 -8.45 -8.70 -3.76 -4.69 -7.38 -9.28 -8.01 -10.11 -1.17 -1.61 -1.17 -1.61 -5.47 -1.61 l-4.30 0 0 19.79 0 19.79 4.64 0 4.64 0 0.10 -9.38z m46.32 0.44 c0 -6.30 0.20 -9.14 0.59 -9.53 0.34 -0.34 1.51 -0.59 2.64 -0.59 2.20 0 1.37 -0.93 13.14 14.36 l3.42 4.45 4.06 0.15 4.01 0.15 0 -19.84 0 -19.79 -4.64 0 -4.64 0 0 10.26 0 10.26 -1.61 0 c-1.47 0 -2.05 -0.64 -8.99 -9.38 -4.10 -5.18 -7.77 -9.87 -8.16 -10.41 -0.59 -0.83 -1.17 -0.93 -4.25 -0.78 -2 0.05 -3.86 0.34 -4.20 0.64 -0.49 0.39 -0.64 4.89 -0.64 19.74 l0 19.25 4.64 0 4.64 0 0 -8.94z m115.60 -10.94 l8.26 -19.93 -4.35 -0.15 c-2.39 -0.05 -4.54 0.05 -4.79 0.29 -0.24 0.24 -1.91 4.15 -3.62 8.70 -7.48 19.45 -6.45 17.30 -8.26 17.30 -1.56 0 -1.71 -0.15 -2.69 -2.78 -0.54 -1.56 -2.78 -7.38 -4.93 -12.90 l-3.96 -10.11 -4.74 -0.20 c-2.59 -0.15 -4.74 -0.20 -4.79 -0.15 -0.05 0 0.83 2.35 2 5.18 1.17 2.78 4.74 11.34 7.87 19.01 3.18 7.67 5.96 14.32 6.20 14.80 0.34 0.68 1.12 0.83 4.98 0.83 l4.54 0 8.26 -19.89z m17.64 17.39 c1.32 -3.86 1.51 -3.91 12.17 -3.76 l9.19 0.15 1.22 3.08 1.17 3.03 4.59 0 c2.49 0 4.54 -0.10 4.54 -0.20 0 -0.15 -5.62 -13.78 -13.78 -33.37 l-2.44 -5.96 -2.05 -0.29 c-1.07 -0.20 -3.32 -0.24 -4.93 -0.15 l-2.93 0.15 -3.32 7.82 c-5.77 13.68 -8.99 21.35 -11.24 26.77 l-2.20 5.23 4.59 0 4.54 0 0.88 -2.49z m54.87 -12.85 c0 -11.77 0.15 -15.49 0.64 -15.78 0.29 -0.20 3.03 -0.49 5.96 -0.64 l5.37 -0.24 0.15 -3.76 0.15 -3.81 -17.39 0 -17.39 0 0.15 3.81 0.15 3.76 6.25 0.15 6.20 0.15 0 15.83 0 15.88 4.89 0 4.89 0 0 -15.34z m29.22 -4.54 l-0.15 -19.93 -3.52 -0.15 c-6.06 -0.24 -5.52 -2.15 -5.52 20.42 l0 19.54 4.64 0 4.64 0 -0.10 -19.89z m68.99 10.11 l0 -9.77 2.39 0 2.39 0 2.93 3.81 c1.61 2.05 5.03 6.40 7.52 9.63 l4.59 5.86 4.01 0.15 4.01 0.15 0 -19.79 0 -19.74 -3.03 -0.20 c-1.71 -0.05 -3.81 -0.10 -4.64 0 l-1.61 0.15 0 10.26 0 10.21 -1.66 0 c-1.51 0 -2 -0.39 -5.23 -4.49 -9.04 -11.43 -11.34 -14.41 -12.21 -15.44 -0.88 -1.03 -1.32 -1.12 -4.74 -0.98 l-3.76 0.15 -0.15 19.93 -0.10 19.89 4.64 0 4.64 0 0 -9.77z m63.76 7.57 c1.47 -3.71 1.42 -3.71 12.07 -4.01 l9.43 -0.29 1.22 3.27 1.17 3.22 4.59 0 c4.10 0 4.54 -0.10 4.30 -0.83 -0.15 -0.49 -3.86 -9.43 -8.26 -19.93 l-8.01 -19.05 -4.45 0 c-3.32 0 -4.64 0.20 -5.18 0.73 -0.59 0.64 -15.54 35.72 -16.27 38.26 -0.24 0.73 0.20 0.83 4.15 0.83 l4.40 0 0.83 -2.20z m49.59 -8.31 l0 -10.50 1.86 0.05 c1.76 0 1.95 0.20 8.50 8.65 3.71 4.74 7.33 9.48 8.06 10.46 l1.37 1.81 4.06 0.05 4.01 0 0 -19.40 c0 -10.70 -0.20 -19.69 -0.39 -19.93 -0.20 -0.34 -2 -0.44 -4.59 -0.34 l-4.30 0.20 0 9.97 0 9.97 -1.81 0 c-1.81 -0.05 -2.05 -0.24 -9.87 -10.02 l-7.96 -10.02 -4.10 0 -4.10 0 0 19.79 0 19.79 4.64 0 4.64 0 0 -10.50z m63.52 9.09 c10.46 -4.69 15.10 -16.51 10.41 -26.58 -2.64 -5.57 -7.23 -9.09 -14.12 -10.85 -2.30 -0.59 -5.18 -0.73 -12.70 -0.64 l-9.72 0.15 -0.15 19.69 -0.10 19.69 11.82 -0.15 c11.38 -0.15 11.97 -0.20 14.56 -1.32z m-742.01 -8.70 l1.27 -1.37 -7.18 0.98 c-7.13 0.98 -7.13 0.98 -3.96 1.27 7.33 0.64 8.45 0.54 9.87 -0.88z m76.32 -38.01 c5.67 -11.58 7.43 -15.54 6.30 -14.17 -1.32 1.66 -10.65 16.86 -13.44 21.84 -2.49 4.54 -2.74 4.79 -4.20 4.79 -1.51 0 -1.61 -0.10 -1.61 -1.76 0 -0.98 1.56 -9.58 3.42 -19.15 1.91 -9.53 3.42 -17.59 3.37 -17.88 -0.05 -0.93 -0.88 1.56 -4.35 12.65 -2.93 9.48 -4.40 14.61 -6.35 22.13 -0.49 1.91 -0.64 2.05 -2.15 2.05 l-1.61 0 -0.29 -8.40 c-0.29 -10.06 -1.91 -35.62 -2.20 -35.32 -0.29 0.29 -1.42 21.06 -1.86 33.61 l-0.34 10.60 -1.51 0 -1.51 0 -1.56 -6.01 c-1.91 -7.18 -9.58 -30.93 -9.77 -30.29 -0.20 0.54 3.71 19.93 5.77 28.44 0.78 3.32 1.42 6.89 1.42 7.92 0 1.81 -0.05 1.91 -1.56 1.91 -1.51 -0.05 -1.76 -0.29 -4.25 -4.79 -2.54 -4.54 -14.17 -23.06 -14.46 -23.06 -0.20 0 5.67 12.36 9.97 21.01 3.08 6.11 3.08 6.11 11.19 14.32 l8.16 8.21 9.33 -9.43 9.33 -9.43 4.79 -9.77z m-64.10 25.75 l1.27 -1.32 -10.75 -1.66 c-5.91 -0.88 -10.85 -1.51 -10.94 -1.42 -0.24 0.20 17.25 5.67 18.37 5.72 0.39 0.05 1.32 -0.54 2.05 -1.32z m8.99 -9.23 c-0.10 -0.10 -3.57 -1.71 -7.72 -3.62 -11.43 -5.28 -13.88 -6.40 -13.63 -6.16 0.15 0.15 4.40 2.98 9.53 6.40 l9.28 6.11 1.32 -1.27 c0.73 -0.73 1.27 -1.37 1.22 -1.47z m90.53 -2 c-0.73 -0.15 -1.56 0.29 -2.39 1.12 l-1.27 1.32 2.39 -1.17 c1.95 -0.93 2.20 -1.17 1.27 -1.27z m-84.04 -4.01 c0 -0.20 -4.25 -4.15 -9.38 -8.84 -5.18 -4.64 -9.09 -8.01 -8.65 -7.48 2.83 3.42 9.87 11.77 12.61 14.95 l3.22 3.71 1.12 -1.03 c0.59 -0.54 1.07 -1.17 1.07 -1.32z m301.06 -22.87 c3.03 -1.07 7.04 -4.98 8.60 -8.35 2.98 -6.50 -0.10 -14.36 -6.99 -17.88 -8.50 -4.25 -18.57 0.44 -21.01 9.82 -0.64 2.54 -0.64 3.18 0 5.67 0.93 3.76 2.74 6.30 5.81 8.45 4.54 3.13 9.09 3.86 13.58 2.30z m141.69 -0.29 c1.42 -0.64 3.22 -1.81 3.96 -2.59 l1.37 -1.47 -1.56 -1.27 -1.56 -1.22 -1.95 1.27 c-1.66 1.12 -2.49 1.32 -5.42 1.32 -4.25 -0.05 -6.64 -1.07 -8.21 -3.62 -0.93 -1.47 -1.12 -2.44 -1.12 -5.67 0 -6.79 1.91 -8.65 9.23 -8.94 3.76 -0.20 4.49 -0.10 5.72 0.83 1.51 1.12 3.03 0.88 4.35 -0.68 0.64 -0.73 0.54 -0.98 -0.73 -2 -3.03 -2.44 -5.62 -3.37 -9.53 -3.37 -4.40 0 -7.13 1.17 -10.31 4.30 -5.08 5.08 -5.81 12.26 -1.76 17.49 4.64 6.06 11.63 8.31 17.54 5.62z m32.44 -0.39 c3.81 -2.44 5.57 -4.30 7.08 -7.48 2.49 -5.18 1.47 -10.75 -2.74 -15.05 -3.37 -3.37 -6.01 -4.49 -10.75 -4.45 -4.69 0 -7.72 1.32 -10.85 4.74 -2.74 2.98 -3.66 4.89 -3.96 8.40 -0.64 8.06 6.84 15.29 15.83 15.39 2.49 0 3.32 -0.24 5.37 -1.56z m32.69 0.64 c2.64 -1.22 5.86 -4.69 6.89 -7.38 0.64 -1.66 0.88 -4.35 1.07 -11.09 l0.20 -8.94 -3.22 0 -3.22 0 0 9.92 c0 10.80 -0.10 11.34 -2.93 12.80 -2.88 1.51 -8.55 0.54 -9.72 -1.61 -0.34 -0.64 -0.54 -4.79 -0.54 -11.04 l0 -10.06 -2.93 0 -2.93 0 0 9.43 c0 8.84 0.10 9.53 1.17 11.87 2.05 4.35 6.35 6.94 11.77 6.99 1.42 0 3.27 -0.34 4.40 -0.88z m68.65 -0.54 c2.15 -1.51 4.40 -3.52 4.40 -3.91 0 -0.15 -0.64 -0.78 -1.47 -1.37 l-1.42 -1.07 -1.76 1.17 c-3.13 2.15 -8.16 2.25 -11.38 0.29 -2.15 -1.32 -3.52 -4.40 -3.52 -7.96 0 -3.62 0.88 -5.62 3.22 -7.43 1.71 -1.32 2.35 -1.47 5.91 -1.66 3.42 -0.15 4.30 0 5.77 0.88 l1.76 1.03 1.42 -1.07 c0.83 -0.59 1.47 -1.22 1.47 -1.37 0 -0.68 -2.35 -2.44 -4.89 -3.62 -6.79 -3.18 -15.44 0.24 -18.86 7.43 -3.66 7.72 0.34 16.07 9.23 19.25 3.52 1.27 7.82 1.03 10.11 -0.59z m110.32 0.29 c2.44 -1.27 6.35 -5.08 7.57 -7.43 3.42 -6.69 0.15 -15.15 -7.28 -18.81 -3.32 -1.61 -9.23 -1.66 -12.31 -0.05 -6.40 3.37 -10.02 10.21 -8.45 15.98 2.30 8.60 13.14 14.02 20.47 10.31z m-503.63 -6.40 l0 -7.08 2.20 0 2.20 0 5.47 7.08 5.47 7.08 2.35 0 2.35 0 0 -13.92 0 -13.92 -2.93 0 -2.93 0 0 7.33 0 7.33 -1.71 0 c-1.56 0 -2 -0.39 -6.50 -5.96 -2.64 -3.32 -5.23 -6.60 -5.67 -7.33 -0.78 -1.22 -1.17 -1.37 -3.52 -1.37 l-2.64 0 0 13.92 0 13.92 2.93 0 2.93 0 0 -7.08z m32.54 5.03 c0.83 -1.91 1.12 -2.10 3.27 -2.49 1.32 -0.20 4.69 -0.29 7.57 -0.24 l5.18 0.15 0.83 2.20 0.83 2.20 2.69 0.15 2.74 0.15 -4.06 -9.92 c-2.25 -5.47 -4.84 -11.68 -5.77 -13.83 l-1.66 -3.91 -3.08 0 -3.08 0 -3.91 9.28 c-2.10 5.13 -4.74 11.34 -5.77 13.83 l-1.91 4.49 2.59 0 c2.54 0 2.59 0 3.52 -2.05z m37.82 -9.43 l0 -11.43 4.30 -0.15 4.25 -0.15 0.15 -2.30 0.15 -2.35 -11.68 0 c-8.94 0 -11.77 0.15 -11.92 0.64 -0.15 0.29 -0.15 1.42 0 2.44 l0.20 1.81 4.35 0 4.35 0 0 11.48 0 11.48 2.93 0 2.93 0 0 -11.48z m20.52 -2.44 l0 -13.92 -2.93 0 -2.93 0 0 13.92 0 13.92 2.93 0 2.93 0 0 -13.92z m49.35 6.35 l0 -7.57 1.86 0 c1.76 0.05 1.95 0.24 7.57 7.57 l5.77 7.57 2.39 0 2.44 0 0 -13.92 0 -13.92 -2.93 0 -2.93 0 0 7.33 0 7.33 -1.81 0 c-1.81 0 -2 -0.24 -6.99 -6.60 -2.78 -3.62 -5.28 -6.94 -5.52 -7.33 -0.24 -0.49 -1.17 -0.73 -3.03 -0.73 l-2.69 0 0 13.92 0 13.92 2.93 0 2.93 0 0 -7.57z m32.30 5.52 c0.73 -2 0.88 -2.10 3.18 -2.44 1.32 -0.15 4.74 -0.34 7.62 -0.34 l5.18 -0.05 0.83 2.44 0.83 2.44 2.64 0 2.64 0 -0.64 -1.56 c-0.39 -0.88 -2.93 -7.18 -5.72 -13.92 l-5.08 -12.36 -2.93 0 -2.98 0 -5.62 13.48 c-3.08 7.43 -5.67 13.68 -5.77 13.92 -0.10 0.24 1.03 0.44 2.44 0.44 l2.64 0 0.73 -2.05z m49.05 -0.39 l0 -2.20 -7.18 -0.15 -7.23 -0.15 0 -11.43 0 -11.48 -2.93 0 -2.93 0 0 13.92 0 13.92 10.16 -0.10 10.11 -0.15 0 -2.20z m123.86 -4.64 l0 -7.08 2.35 0 2.35 0 5.37 7.04 5.33 7.08 2.35 0 2.30 0.05 0 -13.97 0 -13.92 -2.54 0.15 -2.59 0.15 -0.15 7.23 -0.15 7.18 -1.86 0 c-1.81 0 -1.95 -0.20 -7.62 -7.33 l-5.77 -7.33 -2.35 0 -2.39 0 0 13.92 0 13.92 2.69 0 2.69 0 0 -7.08z m65.96 -6.84 l0 -13.92 -2.93 0 -2.93 0 0 13.92 0 13.92 2.93 0 2.93 0 0 -13.92z m27.85 11.48 l0 -2.44 -7.08 0 -7.08 0 0 -11.48 0 -11.48 -2.93 0 -2.93 0 0 13.92 0 13.92 10.02 0 10.02 0 0 -2.44z m23.94 -2.15 c0 -3.18 0.20 -4.74 0.64 -5.08 0.34 -0.34 3.22 -0.64 6.50 -0.68 l5.81 -0.15 0.15 -2.30 0.15 -2.35 -6.64 0 -6.64 0 0.15 -3.52 0.15 -3.57 5.13 -0.29 c2.83 -0.20 6.06 -0.34 7.23 -0.39 l2.05 -0.05 0 -2.44 0 -2.44 -10.26 0 -10.26 0 0 13.92 0 13.92 2.93 0 2.93 0 0 -4.59z m61.56 0.78 c0 -2.30 0.24 -4.06 0.59 -4.40 0.34 -0.34 1.81 -0.59 3.32 -0.59 l2.69 0 2.59 4.40 2.64 4.40 2.44 0 2.44 0 -1.12 -1.81 c-0.64 -1.03 -1.61 -2.64 -2.25 -3.57 -1.76 -2.64 -1.51 -4.69 0.78 -6.64 3.37 -2.93 4.30 -6.45 2.54 -9.87 -1.22 -2.35 -2.69 -3.71 -5.42 -4.93 -1.86 -0.83 -3.22 -1.03 -8.40 -1.03 -3.42 0 -6.74 0.20 -7.43 0.49 l-1.27 0.49 0 13.44 0 13.44 2.93 0 2.93 0 0 -3.81z"/>
  <path d="M523.27 216.93 c0 -8.70 0.10 -9.82 0.83 -10.11 1.51 -0.59 9.67 0.59 11.04 1.61 3.32 2.39 4.40 9.48 2.20 13.88 -1.66 3.22 -4.20 4.40 -9.77 4.40 l-4.30 0 0 -9.77z"/>
  <path d="M574.91 221.47 c-0.68 -0.64 -0.24 -3.42 1.07 -6.99 1.37 -3.62 1.42 -3.66 3.27 -3.81 l1.91 -0.15 1.37 3.81 c0.73 2.10 1.32 4.64 1.32 5.67 l0 1.81 -4.30 0 c-2.39 0 -4.49 -0.15 -4.64 -0.34z"/>
  <path d="M438.40 166.75 c-0.49 -0.15 -0.64 -1.91 -0.64 -6.35 l0 -6.11 4.93 0.20 c4.69 0.15 4.98 0.20 6.11 1.51 0.93 1.12 1.17 1.91 1.17 4.25 0 5.37 -1.66 6.84 -7.43 6.79 -1.95 0 -3.86 -0.15 -4.15 -0.29z"/>
  <path d="M367.02 166.22 c-0.44 -0.29 -0.59 -1.86 -0.49 -6.01 l0.15 -5.57 5.47 0 c5.08 0 5.52 0.10 6.69 1.17 1.12 1.07 1.27 1.56 1.27 4.45 0 3.81 -0.73 5.13 -3.32 5.86 -2.15 0.59 -8.89 0.64 -9.77 0.10z"/>
  <path d="M471.97 160.50 l0 -6.11 4.59 0 c4.93 0 7.38 0.59 8.11 1.95 0.78 1.47 0.59 6.94 -0.24 8.16 -1.03 1.47 -3.62 2.10 -8.40 2.10 l-4.06 0 0 -6.11z"/>
  <path d="M657.04 166.31 c-0.24 -0.20 -0.39 -2.98 -0.39 -6.20 l0 -5.81 5.62 0.15 c5.03 0.20 5.72 0.29 6.69 1.32 0.98 0.93 1.12 1.61 1.12 4.49 0 3.08 -0.15 3.52 -1.32 4.74 -1.27 1.27 -1.66 1.37 -6.35 1.51 -2.78 0.10 -5.18 0.05 -5.37 -0.20z"/>
  <path d="M784.66 160.69 l0 -6.40 4.89 0.20 c4.30 0.15 4.98 0.29 6.11 1.37 1.07 1.03 1.22 1.51 1.22 4.49 0 1.86 -0.24 3.81 -0.54 4.40 -0.83 1.56 -3.47 2.35 -7.77 2.35 l-3.91 0 0 -6.40z"/>
  <path d="M381.83 117.55 c-2.98 -1.12 -5.86 -4.45 -6.55 -7.57 -1.47 -6.79 0.39 -12.65 4.79 -15.10 1.32 -0.78 3.18 -1.17 5.81 -1.42 3.47 -0.24 4.15 -0.15 6.60 0.98 4.93 2.25 7.04 7.43 5.81 14.41 -1.03 6.01 -4.45 8.94 -10.85 9.23 -2.39 0.10 -4.35 -0.10 -5.62 -0.54z"/>
  <path d="M572.42 117.75 c-4.54 -1.37 -7.18 -5.13 -7.52 -10.75 -0.34 -6.20 1.37 -10.11 5.28 -12.12 1.95 -1.03 2.78 -1.12 7.38 -0.98 4.74 0.15 5.28 0.24 6.89 1.47 2.88 2.20 4.06 5.23 4.06 10.41 0 3.62 -0.20 4.79 -1.07 6.45 -1.32 2.44 -4.20 4.89 -6.50 5.52 -2.05 0.59 -6.55 0.59 -8.50 0z"/>
  <path d="M468.11 110.32 c0 -0.88 0.83 -3.71 1.81 -6.25 l1.81 -4.64 2.20 -0.15 2.20 -0.15 1.86 5.03 c0.98 2.78 1.81 5.62 1.81 6.40 l0 1.32 -5.86 0 -5.86 0 0.05 -1.56z"/>
  <path d="M684.99 110.32 c0 -0.88 0.83 -3.71 1.86 -6.25 l1.81 -4.64 2.25 -0.15 2.25 -0.15 1.81 5.03 c0.98 2.78 1.76 5.62 1.76 6.40 l0 1.32 -5.86 0 -5.86 0 0 -1.56z"/>
  <path d="M775.72 117.41 c-0.20 -0.15 -0.34 -5.57 -0.34 -11.97 l0 -11.63 5.52 0 c6.99 0 8.84 0.54 11.43 3.18 2.44 2.54 3.37 6.06 2.83 10.70 -0.54 5.08 -2.83 8.16 -6.79 9.33 -2.44 0.73 -12.02 1.03 -12.65 0.39z"/>
  <path d="M370.98 60.63 c-4.20 -1.07 -5.77 -3.52 -5.77 -9.09 0 -6.79 2.30 -9.04 9.19 -9.04 6.74 0 8.65 1.95 8.65 8.84 0 4.54 -0.73 6.35 -3.47 8.35 -1.42 1.07 -6.06 1.56 -8.60 0.93z"/>
  <path d="M543.84 60.63 c-2.20 -0.59 -3.91 -1.91 -5.03 -3.96 -1.32 -2.39 -1.07 -9.09 0.39 -11.09 1.66 -2.25 3.86 -3.08 8.16 -3.08 4.54 0 6.11 0.73 7.67 3.52 0.93 1.66 1.03 2.49 0.88 6.01 -0.15 4.49 -0.93 6.11 -3.71 7.72 -1.76 1.03 -5.96 1.47 -8.35 0.88z"/>
  <path d="M755.10 60.49 c-3.52 -1.22 -5.13 -4.06 -5.13 -8.94 0 -3.86 0.78 -5.96 2.88 -7.72 1.47 -1.22 1.91 -1.32 6.01 -1.32 7.13 0 8.84 1.61 9.09 8.55 0.15 3.96 0.05 4.59 -0.98 6.11 -2.20 3.27 -7.62 4.79 -11.87 3.32z"/>
  <path d="M298.03 54.87 c0 -1.81 1.17 -5.67 2.10 -6.84 0.24 -0.34 1.37 -0.64 2.49 -0.64 l2.05 0 1.12 3.13 c0.59 1.71 1.03 3.76 0.93 4.54 l-0.15 1.37 -4.25 0.15 -4.30 0.15 0 -1.86z"/>
  <path d="M438.26 54.77 c0 -1.07 0.44 -2.93 0.98 -4.15 0.93 -2.25 0.98 -2.25 3.32 -2.25 2.39 0 2.39 0 3.22 2.10 0.44 1.12 0.78 3.03 0.78 4.15 l0 2.05 -4.15 0 -4.15 0 0 -1.91z"/>
  <path d="M786.76 51.99 c-0.44 -0.20 -0.64 -1.66 -0.64 -4.89 l0 -4.59 5.08 0 c4.93 0 5.13 0.05 6.11 1.27 1.66 2.15 1.12 6.99 -0.88 7.77 -1.03 0.44 -8.94 0.78 -9.67 0.44z"/>
 </g>
 <g fill="#0d583e">
  <path d="M68.16 249.67 c-2.49 -1.22 -3.66 -3.18 -3.66 -6.11 0 -1.91 0.24 -2.54 1.47 -3.66 0.83 -0.78 2.20 -1.61 3.08 -1.86 0.93 -0.29 15.88 -0.59 36.20 -0.78 28.14 -0.20 34.93 -0.15 36.16 0.39 2.35 1.03 3.81 2.88 4.06 5.33 0.29 2.54 -0.59 4.49 -2.78 6.40 l-1.56 1.27 -35.47 0 c-34.49 0 -35.57 -0.05 -37.47 -0.98z"/>
  <path d="M131.18 233.54 c-1.07 -0.24 -15.49 -0.44 -32 -0.44 -29.27 -0.05 -30.10 -0.10 -31.66 -1.03 -2.88 -1.76 -3.91 -6.16 -2.10 -9.09 1.95 -3.22 0.59 -3.13 39.58 -3.13 38.84 0 37.72 -0.10 39.62 3.03 1.76 2.88 0.88 7.28 -1.76 8.99 -0.73 0.49 -2.64 1.07 -4.30 1.27 -1.66 0.20 -3.52 0.44 -4.20 0.59 -0.68 0.10 -2.10 0 -3.18 -0.20z"/>
  <path d="M64.30 212.19 c-0.44 -4.25 -1.86 -10.02 -3.52 -14.12 -3.13 -7.77 -7.62 -14.17 -17.10 -24.14 -3.91 -4.06 -7.04 -7.52 -6.94 -7.57 0.10 -0.10 2.54 -2.64 5.52 -5.62 l5.37 -5.47 4.15 4.59 c8.55 9.38 9.72 10.50 10.26 9.58 0.44 -0.73 0.73 -0.59 2.39 1.22 1.71 1.81 1.86 2.15 1.22 2.83 -0.59 0.64 -0.39 1.12 1.61 3.91 4.54 6.25 8.31 13.39 9.97 18.91 l0.59 2.05 14.61 0 14.56 0 0 8.55 0 8.55 -21.20 0 -21.16 0 -0.34 -3.27z"/>
  <path d="M13.44 173.15 c-2.35 -2.83 -4.30 -5.42 -4.45 -5.77 -0.24 -0.59 19.49 -20.67 53.94 -54.77 l18.66 -18.57 10.99 10.99 c6.01 6.01 11.04 10.85 11.19 10.75 0.10 -0.15 18.81 -18.76 41.53 -41.33 22.72 -22.62 41.33 -41.19 41.33 -41.33 0 -0.10 -3.86 -3.37 -8.55 -7.28 -4.69 -3.86 -8.50 -7.23 -8.55 -7.43 0 -0.59 0.83 -0.73 30.05 -5.47 9.14 -1.47 17.98 -2.93 19.69 -3.22 1.71 -0.29 3.22 -0.44 3.37 -0.24 0.15 0.15 -0.73 7.04 -2 15.29 -1.27 8.31 -3.03 20.28 -3.91 26.68 -0.88 6.35 -1.71 11.68 -1.86 11.82 -0.10 0.10 -3.57 -3.86 -7.67 -8.79 -6.79 -8.21 -7.62 -9.04 -8.99 -9.04 -1.42 0 -5.86 4.30 -47.93 46.46 l-46.32 46.51 -11.34 -11.34 c-6.20 -6.20 -11.58 -11.29 -11.92 -11.29 -0.39 0 -14.71 14.07 -31.90 31.22 l-31.22 31.27 -4.15 -5.13z"/>
  <path d="M22.04 141.40 c-1.76 -4.69 -3.81 -11.97 -4.74 -17.05 -0.73 -3.76 -0.93 -7.04 -0.88 -14.41 0 -8.35 0.15 -10.26 1.32 -15.68 5.86 -27.80 22.08 -49.44 46.02 -61.41 14.27 -7.08 23.75 -9.33 40.36 -9.53 9.09 -0.05 11.19 0.05 16.17 1.03 10.85 2.05 21.79 6.40 30.83 12.17 4.06 2.59 13.05 9.38 13.05 9.87 0 0.44 -10.94 11.29 -11.38 11.29 -0.20 0 -1.95 -1.27 -3.96 -2.88 -9.67 -7.67 -19.20 -11.87 -32 -13.97 -6.79 -1.17 -21.69 -0.78 -27.95 0.68 -9.48 2.20 -19.30 6.60 -26.43 11.87 -5.42 4.01 -11.68 10.11 -15.34 15.05 -3.86 5.13 -9.53 16.37 -11.19 22.23 -3.42 11.87 -3.62 26.87 -0.49 38.35 l0.73 2.69 -6.25 6.25 c-3.37 3.42 -6.35 6.20 -6.55 6.20 -0.15 0 -0.78 -1.22 -1.32 -2.74z"/>
  <path d="M383.05 127.47 c-7.87 -1.17 -13.68 -5.42 -17.25 -12.61 -1.51 -3.08 -1.56 -3.42 -1.56 -9.09 0 -5.57 0.10 -6.01 1.56 -9.19 2.88 -6.06 9.19 -11.19 15.05 -12.21 7.38 -1.27 11.77 -0.83 16.86 1.71 13.34 6.64 16.12 24.14 5.67 35.47 -5.13 5.52 -11.19 7.28 -20.33 5.91z m8.79 -12.21 c7.28 -4.10 6.79 -15.88 -0.78 -19.35 -8.06 -3.66 -16.22 3.37 -14.32 12.46 0.64 3.22 3.52 6.60 6.55 7.72 2.49 0.88 6.06 0.54 8.55 -0.83z"/>
  <path d="M573.35 127.52 c-10.21 -1.37 -17.78 -8.65 -19.35 -18.57 -1.71 -11.14 5.37 -21.79 16.42 -24.67 13.68 -3.57 27.41 5.03 29.02 18.08 0.88 7.28 -1.22 13.68 -6.16 18.86 -5.72 5.96 -10.55 7.52 -19.93 6.30z m8.79 -12.61 c5.33 -3.71 6.55 -10.65 2.83 -15.93 -1.95 -2.69 -4.10 -3.71 -7.96 -3.71 -3.91 0 -7.04 1.42 -8.65 3.86 -4.25 6.35 -1.47 14.95 5.52 17.15 2.39 0.78 6.11 0.15 8.26 -1.37z"/>
  <path d="M253.18 105.92 l0.15 -21.16 6.25 -0.15 6.20 -0.15 0 21.30 0 21.25 -6.35 0 -6.35 0 0.10 -21.11z"/>
  <path d="M272.14 105.78 c0 -19.89 0.05 -21.25 0.88 -21.30 0.44 -0.05 3.03 -0.05 5.72 0 4.06 0.05 4.98 0.20 5.52 0.88 0.34 0.49 3.96 5.08 8.06 10.21 l7.43 9.38 0.15 -10.16 0.10 -10.11 5.72 -0.29 c3.18 -0.15 5.91 -0.15 6.11 -0.05 0.20 0.15 0.39 9.82 0.39 21.50 l0 21.20 -5.33 0 -5.33 0 -1.42 -1.81 c-11.09 -14.36 -13.58 -17.30 -14.51 -17.15 -0.98 0.15 -1.03 0.49 -1.17 9.58 l-0.10 9.38 -6.11 0 -6.11 0 0 -21.25z"/>
  <path d="M318.56 106.32 c0 -15.98 0.15 -20.81 0.64 -21.16 0.29 -0.29 2.74 -0.68 5.33 -0.83 4.25 -0.29 4.84 -0.24 5.62 0.59 0.49 0.49 4.30 5.23 8.45 10.50 l7.57 9.63 0.15 -10.26 0.10 -10.26 6.11 0 6.11 0 0 21.25 0 21.30 -5.47 -0.15 -5.52 -0.15 -3.42 -4.45 c-9.09 -11.82 -11.19 -14.36 -11.68 -14.36 -1.56 0 -1.76 1.22 -1.76 10.11 l0 8.94 -6.11 0 -6.11 0 0 -20.72z"/>
  <path d="M425.65 126.20 c-0.24 -0.49 -3.03 -7.13 -6.20 -14.80 -3.13 -7.67 -6.89 -16.76 -8.35 -20.23 -1.47 -3.42 -2.49 -6.45 -2.35 -6.69 0.24 -0.39 12.70 -0.29 13.14 0.15 0.20 0.20 7.48 18.76 9.28 23.55 0.59 1.61 0.98 2.15 1.22 1.71 0.24 -0.39 2.39 -5.91 4.84 -12.26 2.39 -6.40 4.64 -12.07 4.93 -12.61 0.49 -0.88 0.98 -0.98 6.84 -0.98 3.47 0 6.40 0.15 6.50 0.39 0.10 0.20 -3.76 9.87 -8.60 21.50 l-8.79 21.11 -6.01 0 c-5.23 0 -6.06 -0.10 -6.45 -0.83z"/>
  <path d="M450.72 125.22 c1.37 -3.81 15.93 -38.50 16.86 -40.16 0.49 -0.93 0.98 -1.03 5.33 -1.03 2.64 0 5.47 0.15 6.30 0.29 1.66 0.34 0.44 -2.25 12.85 27.80 3.22 7.77 6.01 14.32 6.11 14.51 0.15 0.20 -2.78 0.39 -6.55 0.39 l-6.79 0 -1.17 -3.03 -1.22 -3.08 -7.72 -0.15 c-8.99 -0.15 -9.38 0 -10.70 3.76 l-0.88 2.49 -6.55 0 -6.55 0 0.68 -1.81z m26.04 -18.81 c-0.83 -2.25 -1.61 -4.45 -1.71 -4.89 -0.15 -0.49 -0.59 -0.88 -0.98 -0.88 -0.68 0 -1.17 0.93 -3.27 6.55 l-1.22 3.22 4.35 0 4.35 0 -1.51 -4.01z"/>
  <path d="M506.17 111.15 l0 -15.83 -6.20 -0.15 -6.25 -0.15 -0.15 -5.23 -0.15 -5.28 18.86 0 18.86 0 -0.15 5.28 -0.15 5.23 -5.37 0.24 c-2.93 0.15 -5.67 0.44 -5.96 0.64 -0.49 0.29 -0.64 4.01 -0.64 15.78 l0 15.34 -6.35 0 -6.35 0 0 -15.88z"/>
  <path d="M535.97 106.02 c0 -20.47 0 -21.01 0.98 -21.50 0.59 -0.29 3.08 -0.49 5.96 -0.39 l5.03 0.15 0.15 21.40 0.10 21.35 -6.11 0 -6.11 0 0 -21.01z"/>
  <path d="M604.96 105.68 l0.15 -21.40 5.23 -0.15 c4.93 -0.15 5.33 -0.05 6.20 0.98 0.88 1.03 3.22 4.06 12.26 15.54 l3.66 4.59 0.24 -10.46 0.24 -10.50 1.71 -0.10 c0.93 0 3.62 0.05 6.01 0.20 l4.25 0.29 0 21.20 0 21.20 -5.47 -0.15 -5.47 -0.15 -4.59 -5.86 c-2.49 -3.22 -5.91 -7.57 -7.52 -9.63 -4.64 -6.01 -4.79 -5.81 -4.79 5.96 l0 9.77 -6.11 0 -6.11 0 0.10 -21.35z"/>
  <path d="M667.65 125.22 c0.39 -1.03 4.35 -10.41 8.70 -20.91 6.45 -15.39 8.21 -19.15 9.19 -19.69 0.78 -0.39 2.98 -0.54 6.50 -0.49 l5.33 0.15 8.50 20.28 c4.64 11.14 8.60 20.72 8.75 21.35 l0.29 1.12 -6.55 0 -6.55 0 -1.17 -3.22 -1.22 -3.27 -8.01 0.29 c-8.99 0.34 -9.14 0.39 -10.55 4.01 l-0.83 2.20 -6.55 0 -6.55 0 0.73 -1.81z m25.89 -19.45 c-0.93 -2.59 -1.71 -4.79 -1.71 -4.89 0 -0.15 -0.34 -0.24 -0.78 -0.24 -0.73 0 -1.32 1.12 -3.42 6.74 l-1.17 3.03 4.40 0 4.35 0 -1.66 -4.64z"/>
  <path d="M718.22 105.83 l0 -21.25 4.93 -0.15 c2.69 -0.10 5.28 0 5.72 0.15 0.44 0.20 4.35 4.74 8.65 10.16 4.30 5.37 7.96 9.77 8.21 9.82 0.20 0 0.34 -4.49 0.34 -9.92 l0 -9.97 5.72 -0.34 c4.35 -0.24 5.81 -0.15 6.11 0.29 0.20 0.34 0.39 10.02 0.39 21.55 l0 20.86 -5.47 0 -5.52 -0.05 -1.37 -1.81 c-5.08 -6.79 -14.80 -19.10 -15.10 -19.10 -0.24 -0.05 -0.39 4.69 -0.39 10.46 l0 10.50 -6.11 0 -6.11 0 0 -21.20z"/>
  <path d="M764.73 105.92 l0.15 -21.16 11.19 -0.15 c12.17 -0.15 14.71 0.20 19.69 2.64 5.57 2.69 9.43 8.31 10.41 15.24 1.42 10.11 -3.37 19.15 -12.21 23.11 -2.59 1.12 -3.08 1.17 -16.03 1.32 l-13.29 0.15 0.10 -21.16z m22.18 9.63 c6.99 -2.05 9.19 -11.63 3.91 -17.10 -2.39 -2.54 -4.45 -3.18 -9.92 -3.18 l-4.06 0 0 10.16 c0 5.62 0.15 10.36 0.34 10.50 0.59 0.64 7.28 0.34 9.72 -0.39z"/>
  <path d="M42.36 118.09 l-6.74 -0.49 0.15 -1.47 0.15 -1.51 9.28 -1.32 c13 -1.91 12.36 -2.05 8.26 2 -1.95 1.91 -3.71 3.37 -3.91 3.32 -0.24 0 -3.47 -0.29 -7.18 -0.54z"/>
  <path d="M94.25 99.82 l-9.04 -9.19 -8.94 -18.47 c-4.98 -10.21 -8.84 -18.76 -8.65 -19.15 0.15 -0.39 0.78 -0.73 1.42 -0.73 0.98 0 1.71 0.83 3.81 4.30 1.42 2.35 4.98 7.96 7.92 12.56 2.93 4.54 6.84 10.90 8.70 14.12 1.86 3.22 3.37 5.62 3.37 5.33 0 -0.29 -0.64 -3.22 -1.42 -6.55 -1.81 -7.52 -7.38 -34.64 -7.38 -35.76 0 -0.73 2.30 -2.15 2.74 -1.66 0.39 0.39 9.67 29.41 11.34 35.57 l1.91 6.89 0.34 -9.92 c0.34 -11.68 1.17 -28.44 1.56 -32.10 0.24 -2.49 0.29 -2.54 1.86 -2.54 l1.56 0 0.88 13.58 c0.49 7.43 0.98 17.34 1.12 21.99 0.15 4.64 0.39 8.35 0.49 8.21 0.10 -0.10 0.93 -2.98 1.86 -6.45 0.88 -3.47 3.22 -11.34 5.18 -17.54 1.91 -6.16 3.96 -12.70 4.49 -14.51 0.83 -2.74 1.17 -3.32 2 -3.32 2.59 0.05 2.64 -0.44 -3.91 32.39 -1.22 6.16 -2.15 11.24 -2.05 11.34 0.10 0.10 1.47 -2.10 2.98 -4.89 1.56 -2.78 5.13 -8.79 7.96 -13.29 2.88 -4.49 6.64 -10.55 8.45 -13.44 1.76 -2.88 3.47 -5.28 3.71 -5.28 0.29 0 0.98 0.34 1.56 0.73 1.03 0.73 1.03 0.78 -2.49 7.67 -1.91 3.86 -5.91 11.92 -8.79 17.98 l-5.33 10.99 -10.06 10.16 -10.06 10.16 -9.09 -9.19z"/>
  <path d="M49.10 103.09 c-11.63 -3.62 -12.21 -3.86 -12.36 -5.08 -0.10 -0.78 0.10 -1.37 0.54 -1.56 0.39 -0.15 7.18 0.73 15.15 1.95 7.92 1.22 14.71 2.25 15.05 2.25 0.34 0 -0.78 1.42 -2.49 3.18 -1.71 1.76 -3.27 3.13 -3.42 3.13 -0.15 -0.05 -5.72 -1.76 -12.46 -3.86z"/>
  <path d="M56.33 90.73 c-7.04 -4.59 -13.14 -8.65 -13.58 -8.89 -1.17 -0.68 -0.54 -2.69 0.78 -2.69 0.54 0 5.77 2.25 11.58 4.93 5.81 2.74 11.48 5.37 12.56 5.81 1.07 0.49 3.27 1.47 4.84 2.20 l2.88 1.27 -2.88 2.93 c-1.56 1.56 -2.98 2.88 -3.13 2.88 -0.15 0 -6.01 -3.81 -13.05 -8.45z"/>
  <path d="M70.31 86.87 c-2.83 -3.32 -6.99 -8.21 -9.23 -10.90 -2.25 -2.69 -5.13 -6.01 -6.50 -7.43 l-2.39 -2.49 0.88 -1.27 c1.12 -1.51 1.71 -1.56 2.93 -0.24 0.49 0.59 6.25 5.86 12.75 11.73 6.50 5.91 11.97 10.94 12.17 11.24 0.34 0.59 -4.06 5.33 -4.93 5.33 -0.29 0 -2.88 -2.69 -5.67 -5.96z"/>
  <path d="M368.93 66.69 c-2.98 -0.93 -7.04 -3.86 -8.60 -6.16 -2 -3.08 -2.98 -7.72 -2.35 -11.43 0.29 -1.66 0.93 -3.91 1.42 -4.93 1.22 -2.59 4.35 -5.62 7.28 -7.08 2.10 -1.03 3.13 -1.17 7.57 -1.17 4.69 0 5.37 0.10 7.96 1.42 5.47 2.78 8.35 7.72 8.35 14.22 0 3.18 -0.20 4.40 -1.22 6.60 -1.61 3.42 -5.62 7.33 -8.65 8.40 -2.83 0.98 -8.79 1.07 -11.77 0.15z m9.23 -8.50 c4.64 -3.27 4.64 -11.09 0.05 -13.48 -1.95 -0.98 -5.77 -0.93 -7.87 0.15 -4.49 2.25 -4.93 10.36 -0.73 13.09 2.69 1.76 6.25 1.86 8.55 0.24z"/>
  <path d="M509.69 66.50 c-4.45 -1.56 -8.79 -5.91 -9.92 -9.97 -0.98 -3.62 -0.73 -8.70 0.64 -11.68 1.47 -3.13 4.54 -6.30 7.62 -7.77 3.03 -1.47 9.77 -1.86 13 -0.78 2.88 0.98 6.55 3.52 7.23 5.03 0.49 1.03 0.39 1.37 -0.83 2.64 -0.78 0.83 -1.66 1.47 -1.91 1.47 -0.29 0 -1.07 0.44 -1.76 0.93 l-1.17 0.93 -1.91 -1.71 c-1.86 -1.66 -2.05 -1.71 -4.93 -1.51 -3.71 0.24 -5.57 1.12 -6.84 3.32 -2.20 3.76 -0.73 9.23 3.03 11.04 3.52 1.66 5.81 1.17 10.60 -2.44 0.34 -0.29 1.61 0.39 3.57 1.91 2.35 1.81 2.88 2.49 2.54 3.13 -0.88 1.66 -4.25 4.45 -6.50 5.37 -3.08 1.32 -8.79 1.37 -12.46 0.10z"/>
  <path d="M541.35 66.59 c-4.69 -1.61 -8.31 -5.13 -10.06 -9.67 -1.07 -2.83 -0.78 -9.97 0.49 -12.41 1.37 -2.59 4.69 -5.91 7.38 -7.28 2.20 -1.17 2.98 -1.27 7.82 -1.32 6.35 0 8.55 0.83 12.21 4.49 2.88 2.98 4.15 6.35 4.15 11.29 0 6.20 -2.44 10.26 -8.50 14.17 -2.25 1.47 -2.69 1.56 -6.84 1.56 -2.74 -0.05 -5.28 -0.34 -6.64 -0.83z m9.48 -8.40 c2.25 -1.27 3.37 -3.13 3.62 -6.11 0.39 -4.84 -2.44 -8.11 -7.08 -8.11 -4.59 0 -7.52 2.54 -7.82 6.94 -0.49 6.45 5.72 10.46 11.29 7.28z"/>
  <path d="M575.55 66.69 c-3.03 -0.98 -5.77 -3.37 -7.13 -6.30 -1.12 -2.39 -1.17 -2.98 -1.17 -13.34 l0 -10.90 4.40 0 4.40 0 0 10.26 c0 10.21 0 10.31 1.17 11.48 1.56 1.56 4.15 2 6.06 1.03 2.93 -1.51 3.03 -2 3.03 -12.85 l0 -9.92 4.69 0 4.69 0 -0.20 10.41 c-0.24 11.87 -0.64 13.44 -3.96 16.90 -2.98 3.08 -5.18 3.96 -9.87 3.91 -2.15 0 -4.89 -0.34 -6.11 -0.68z"/>
  <path d="M643.12 66.54 c-7.13 -2.54 -10.65 -7.57 -10.65 -15.24 0.05 -3.52 0.24 -4.59 1.42 -6.94 1.61 -3.37 4.89 -6.35 8.50 -7.72 3.91 -1.47 9.77 -1.37 13.29 0.29 2.69 1.22 6.35 4.35 6.35 5.33 -0.05 0.24 -1.42 1.51 -3.13 2.78 -3.13 2.30 -3.13 2.30 -4.01 1.27 -1.42 -1.51 -3.37 -2.35 -5.52 -2.35 -2.59 0 -3.96 0.59 -6.06 2.54 -2.05 1.95 -2.69 4.45 -1.81 7.38 1.66 5.52 7.96 7.18 12.41 3.22 0.93 -0.78 1.86 -1.42 2.10 -1.42 0.59 0 5.72 3.86 5.96 4.49 0.20 0.64 -2.59 3.52 -5.33 5.42 -2 1.42 -2.59 1.56 -6.60 1.66 -3.32 0.15 -5.03 -0.05 -6.94 -0.73z"/>
  <path d="M753.30 66.54 c-4.98 -1.81 -8.99 -5.96 -10.21 -10.60 -0.88 -3.18 -0.29 -8.89 1.17 -11.77 1.42 -2.78 4.15 -5.47 7.28 -7.13 1.81 -0.98 2.83 -1.12 7.48 -1.12 4.69 0 5.67 0.15 7.77 1.17 6.50 3.18 9.97 10.31 8.60 17.34 -0.73 3.76 -1.51 5.23 -4.30 8.26 -3.47 3.66 -6.01 4.74 -11.19 4.74 -2.78 -0.05 -5.13 -0.34 -6.60 -0.88z m8.89 -8.01 c3.27 -1.66 4.54 -3.86 4.30 -7.48 -0.29 -4.89 -2.64 -7.08 -7.62 -7.08 -2.49 0 -3.18 0.20 -4.54 1.32 -4.69 3.96 -3.42 11.73 2.25 13.73 2.25 0.78 3.27 0.68 5.62 -0.49z"/>
  <path d="M254.06 51.55 l0 -15.39 4.10 0 c3.91 0 4.10 0.05 4.98 1.37 0.44 0.73 3.08 4.06 5.77 7.43 l4.93 6.11 0.15 -7.43 0.15 -7.48 4.35 0 4.40 0 0 15.39 0 15.39 -3.81 0 -3.81 0 -5.47 -7.08 c-3.03 -3.91 -5.81 -7.08 -6.20 -7.08 -0.64 0 -0.73 1.12 -0.73 7.08 l0 7.08 -4.40 0 -4.40 0 0 -15.39z"/>
  <path d="M285.53 66.11 c0.15 -0.49 3.03 -7.38 6.35 -15.29 l6.06 -14.41 4.45 -0.15 4.49 -0.15 1.27 2.83 c1.47 3.37 11.38 27.56 11.38 27.85 0 0.10 -2.10 0.10 -4.69 0.05 l-4.69 -0.15 -0.83 -2.20 -0.83 -2.20 -3.71 -0.15 c-2.05 -0.05 -4.79 0.05 -6.06 0.24 -2.20 0.39 -2.49 0.59 -3.32 2.49 l-0.93 2.05 -4.59 0 c-4.15 0 -4.59 -0.10 -4.35 -0.83z m19.49 -11.19 c0.44 -0.44 -1.76 -6.06 -2.39 -6.06 -0.29 0 -0.78 0.29 -1.03 0.64 -0.49 0.64 -2.10 4.74 -2.10 5.37 0 0.39 5.08 0.49 5.52 0.05z"/>
  <path d="M324.42 55.45 l0 -11.48 -4.35 0 -4.35 0 -0.34 -2.88 c-0.64 -5.33 -1.66 -4.93 13.48 -4.93 l13.19 0 -0.15 3.81 -0.15 3.76 -4.25 0.15 -4.30 0.15 0 11.43 0 11.48 -4.40 0 -4.40 0 0 -11.48z"/>
  <path d="M344.94 51.55 l0 -15.39 4.40 0 4.40 0 0 15.39 0 15.39 -4.40 0 -4.40 0 0 -15.39z"/>
  <path d="M394.29 51.55 l0 -15.39 4.10 0 c3.86 0 4.15 0.10 4.89 1.22 1.47 2.25 10.16 13.19 10.60 13.34 0.24 0.10 0.44 -3.13 0.44 -7.18 l0 -7.38 4.40 0 4.40 0 0 15.39 0 15.39 -3.91 0 -3.86 0 -5.77 -7.57 c-3.18 -4.15 -5.91 -7.57 -6.11 -7.57 -0.24 0 -0.39 3.42 -0.39 7.57 l0 7.57 -4.40 0 -4.40 0 0 -15.39z"/>
  <path d="M425.65 66.20 c0.10 -0.39 2.88 -7.33 6.25 -15.39 l6.11 -14.66 4.45 0 4.40 0 5.96 14.56 c3.27 7.96 6.06 14.90 6.25 15.39 0.29 0.73 -0.15 0.83 -4.35 0.83 l-4.64 0 -0.83 -2.44 -0.83 -2.44 -3.71 0.05 c-2.05 0 -4.84 0.20 -6.16 0.34 -2.30 0.34 -2.44 0.44 -3.18 2.44 l-0.73 2.05 -4.59 0 c-3.81 0 -4.54 -0.15 -4.40 -0.73z m19.45 -11.58 c0 -0.34 -0.34 -1.56 -0.78 -2.69 -1.12 -2.88 -2.35 -2.83 -3.62 0.15 -0.54 1.22 -0.98 2.44 -0.98 2.69 0 0.24 1.22 0.44 2.69 0.44 1.81 0 2.69 -0.20 2.69 -0.59z"/>
  <path d="M461.22 51.55 l0 -15.39 4.40 0 4.40 0 0 11.48 0 11.43 7.23 0.15 7.18 0.15 0 3.66 0 3.66 -11.58 0.15 -11.63 0.10 0 -15.39z"/>
  <path d="M599.98 51.55 l0 -15.39 3.86 0 3.81 0 5.77 7.33 c3.18 4.06 5.96 7.33 6.16 7.33 0.24 0 0.49 -3.22 0.54 -7.18 l0.15 -7.23 4.06 -0.15 4.01 -0.15 0 15.44 0 15.39 -3.76 -0.05 -3.81 0 -5.33 -7.08 c-3.42 -4.49 -5.67 -7.04 -6.25 -7.04 -0.83 0 -0.88 0.59 -0.88 7.08 l0 7.08 -4.15 0 -4.15 0 0 -15.39z"/>
  <path d="M665.45 51.55 l0 -15.39 4.40 0 4.40 0 0 15.39 0 15.39 -4.40 0 -4.40 0 0 -15.39z"/>
  <path d="M679.13 51.55 l0 -15.39 4.40 0 4.40 0 0 11.48 0 11.48 7.08 0 7.08 0 0 3.91 0 3.91 -11.48 0 -11.48 0 0 -15.39z"/>
  <path d="M717.24 51.55 l0 -15.39 11.73 0 11.73 0 0 3.91 0 3.91 -2.05 0.05 c-1.17 0.05 -4.40 0.20 -7.23 0.39 l-5.13 0.29 -0.15 2.10 -0.15 2.05 6.64 0 6.64 0 -0.15 3.81 -0.15 3.76 -5.81 0.15 c-3.27 0.05 -6.16 0.34 -6.50 0.68 -0.44 0.34 -0.64 1.91 -0.64 5.08 l0 4.59 -4.40 0 -4.40 0 0 -15.39z"/>
  <path d="M778.80 52.03 l0 -14.90 1.27 -0.49 c0.68 -0.29 4.69 -0.49 8.89 -0.49 6.64 0 7.96 0.15 9.87 1.03 4.40 2 6.35 4.98 6.35 9.77 0 3.66 -0.93 5.77 -3.57 8.01 l-1.95 1.66 2.54 4.01 c1.42 2.15 2.88 4.49 3.32 5.13 l0.73 1.17 -4.89 0 -4.89 0 -2.64 -4.40 c-2.20 -3.71 -2.78 -4.40 -3.81 -4.40 -2.05 0 -2.44 0.83 -2.44 4.98 l0 3.81 -4.40 0 -4.40 0 0 -14.90z m16.22 -1.95 c0.44 -0.20 1.07 -0.98 1.42 -1.76 0.49 -1.27 0.44 -1.66 -0.39 -2.78 -0.88 -1.22 -1.32 -1.32 -4.74 -1.47 l-3.71 -0.15 0 3.18 c0 2.05 0.20 3.22 0.64 3.42 0.68 0.29 5.67 0 6.79 -0.44z"/>
 </g>
 <g fill="#565756">
  <path d="M565.53 267.01 c-6.89 -1.81 -8.89 -11.77 -3.37 -16.95 3.57 -3.27 9.53 -3.18 13.29 0.24 1.42 1.32 1.37 1.51 -0.49 2.69 l-1.56 1.03 -1.61 -1.47 c-1.86 -1.56 -3.81 -1.81 -5.96 -0.73 -1.71 0.93 -2.49 2.69 -2.49 5.72 0 4.30 1.86 6.30 5.77 6.30 2.15 -0.05 3.32 -0.83 3.76 -2.59 0.34 -1.27 0.29 -1.32 -1.91 -1.32 -2.15 0 -2.25 -0.05 -2.25 -1.47 l0 -1.47 4.15 0 4.15 0 0 3.96 0 3.91 -2.54 1.12 c-3.47 1.51 -6.01 1.81 -8.94 1.03z"/>
  <path d="M384.37 266.91 c-0.20 -0.15 -0.34 -4.45 -0.34 -9.53 l0 -9.19 6.35 0 6.35 0 0 1.47 0 1.42 -4.25 0.15 -4.30 0.15 -0.15 2.35 -0.15 2.30 4.15 0 4.20 0 0 1.47 0 1.42 -4.01 0.15 -4.06 0.15 -0.15 2.35 -0.15 2.30 4.64 0 4.69 0 0 1.71 0 1.71 -6.25 0 c-3.47 0 -6.45 -0.15 -6.60 -0.34z"/>
  <path d="M401.13 257.73 l0 -9.58 2.54 0.15 2.54 0.15 2.49 5.96 c1.37 3.27 2.59 6.06 2.74 6.20 0.15 0.15 1.32 -2.54 2.69 -5.96 l2.39 -6.20 2.59 -0.15 2.54 -0.15 0 9.53 0 9.58 -1.71 0 c-1.51 0 -1.71 -0.15 -2 -1.76 -0.20 -0.98 -0.20 -3.62 -0.05 -5.86 0.10 -2.25 0.05 -4.10 -0.15 -4.10 -0.34 0 -2.10 4.15 -4.35 10.41 -0.39 1.03 -0.83 1.32 -1.91 1.32 -1.27 0 -1.51 -0.29 -2.78 -3.52 -0.78 -1.95 -1.86 -4.54 -2.39 -5.77 l-1.03 -2.20 -0.24 5.62 -0.24 5.62 -1.81 0.15 -1.86 0.15 0 -9.58z"/>
  <path d="M426.87 266.91 c-0.20 -0.15 -0.34 -4.45 -0.34 -9.53 l0 -9.19 5.18 0 c5.72 0 7.23 0.54 8.70 2.93 1.66 2.83 0.59 7.13 -2.10 8.50 -0.78 0.44 -2.78 0.93 -4.49 1.12 l-3.13 0.39 -0.15 3.08 -0.15 3.03 -1.61 0 c-0.88 0 -1.76 -0.15 -1.91 -0.34z m9.53 -10.75 c1.76 -1.61 0.49 -4.25 -2.30 -4.74 -3.03 -0.59 -3.66 -0.10 -3.66 2.88 0 1.61 0.24 2.69 0.64 2.88 1.03 0.44 4.45 -0.20 5.33 -1.03z"/>
  <path d="M448.62 266.47 c-6.16 -3.18 -6.60 -13.24 -0.73 -17.30 2.49 -1.71 7.04 -1.95 9.82 -0.54 6.01 3.08 6.74 12.80 1.32 16.95 -1.56 1.17 -2.39 1.42 -5.33 1.56 -2.49 0.10 -3.91 -0.10 -5.08 -0.68z m8.01 -4.30 c1.51 -1.51 1.66 -1.91 1.66 -4.69 0 -2.78 -0.15 -3.18 -1.66 -4.69 -2.20 -2.20 -4.49 -2.30 -6.74 -0.24 -1.51 1.37 -1.61 1.61 -1.61 4.93 0 3.32 0.10 3.57 1.61 4.93 2.25 2.05 4.54 1.95 6.74 -0.24z"/>
  <path d="M469.33 266.67 c-0.20 -0.54 -4.25 -14.76 -5.08 -17.64 -0.20 -0.78 0.05 -0.88 1.91 -0.73 l2.15 0.15 1.71 6.30 1.66 6.25 1.66 -6.01 c0.93 -3.32 1.91 -6.20 2.25 -6.40 0.29 -0.20 1.22 -0.39 2.05 -0.39 l1.51 0 1.61 6.11 c0.88 3.37 1.71 6.11 1.91 6.11 0.15 0 0.93 -2.74 1.76 -6.11 l1.42 -6.11 2.10 0 c1.17 0 2.10 0.10 2.10 0.20 0 0.10 -1.17 4.30 -2.64 9.38 l-2.64 9.23 -2.10 0 -2.05 0 -1.61 -5.81 c-0.88 -3.18 -1.71 -5.86 -1.86 -6.01 -0.24 -0.24 -0.49 0.64 -2.44 7.92 l-1.03 3.91 -2.10 0.15 c-1.37 0.10 -2.15 -0.05 -2.25 -0.49z"/>
  <path d="M493.47 257.73 l0 -9.58 6.25 0.15 6.20 0.15 0.15 1.32 0.15 1.32 -4.30 0.15 -4.30 0.15 -0.15 2.35 -0.15 2.30 3.91 0 3.96 0 0 1.47 0 1.47 -3.91 0 -3.91 0 0 2.44 0 2.44 4.40 0 4.40 0 0 1.71 0 1.71 -6.35 0 -6.35 0 0 -9.53z"/>
  <path d="M510.57 257.73 l0 -9.53 5.13 0 c3.66 0 5.62 0.20 6.60 0.73 3.37 1.76 3.91 7.04 0.98 9.67 l-1.56 1.37 2 3.37 c1.12 1.86 2 3.47 2 3.62 0 0.15 -0.98 0.29 -2.20 0.29 l-2.15 0 -2.05 -3.47 c-1.81 -2.98 -2.20 -3.42 -3.32 -3.27 -1.22 0.15 -1.27 0.29 -1.42 3.47 l-0.15 3.27 -1.91 0 -1.95 0 0 -9.53z m10.11 -2 c0.73 -1.17 0.73 -1.42 0.10 -2.59 -0.64 -1.12 -1.07 -1.27 -3.52 -1.42 l-2.78 -0.15 0 2.74 0 2.69 2.69 0 c2.35 0 2.78 -0.15 3.52 -1.27z"/>
  <path d="M530.11 257.73 l0 -9.53 1.95 0 1.95 0 0 9.53 0 9.53 -1.95 0 -1.95 0 0 -9.53z"/>
  <path d="M539.20 264.71 c-0.15 -1.42 -0.29 -5.57 -0.29 -9.23 0 -6.50 0.05 -6.69 1.12 -6.99 2.69 -0.68 2.98 -0.44 6.99 5.37 l3.86 5.67 0.15 -5.67 0.15 -5.67 1.91 0 1.95 0 0 9.58 0 9.53 -1.81 -0.15 c-1.66 -0.15 -2 -0.49 -5.52 -5.47 -2.05 -2.98 -4.01 -5.47 -4.30 -5.57 -0.44 -0.15 -0.59 1.32 -0.59 5.47 l0 5.67 -1.66 0 c-1.61 0 -1.61 -0.05 -1.95 -2.54z"/>
  <path d="M589.23 257.73 l0 -9.53 1.95 0 1.95 0 0 9.53 0 9.53 -1.95 0 -1.95 0 0 -9.53z"/>
  <path d="M598.90 266.96 c-0.24 -0.20 -0.39 -4.49 -0.39 -9.58 l0 -9.19 5.08 0 c2.83 0 5.72 0.24 6.50 0.54 5.33 2 7.23 9.87 3.57 14.95 -1.71 2.35 -4.30 3.27 -9.53 3.47 -2.69 0.10 -5.03 0.05 -5.23 -0.20z m9.09 -3.81 c2.30 -0.93 3.22 -2.49 3.22 -5.33 0 -4.25 -1.95 -6.20 -6.11 -6.20 l-2.20 0 0 6.11 0 6.11 1.71 0 c0.98 0 2.49 -0.29 3.37 -0.68z"/>
  <path d="M619.52 257.73 l0 -9.53 6.35 0 6.35 0 0 1.47 0 1.42 -4.25 0.15 -4.30 0.15 -0.15 2.35 -0.15 2.30 4.15 0 4.20 0 0 1.47 0 1.47 -4.15 0 -4.15 0 0 2.44 0 2.44 4.35 0 c2.44 0 4.49 0.20 4.69 0.49 0.15 0.24 0.15 1.03 -0.05 1.71 l-0.29 1.22 -6.30 0 -6.30 0 0 -9.53z"/>
  <path d="M635.45 266.18 c1.03 -3.27 6.84 -17.78 7.18 -17.88 0.20 -0.05 1.17 -0.10 2.20 -0.10 l1.86 0 3.52 8.99 c1.95 4.98 3.52 9.28 3.52 9.53 0 0.29 -0.88 0.54 -1.95 0.54 -1.81 0 -1.95 -0.15 -2.88 -2.20 l-0.98 -2.20 -3.47 0 -3.47 0 -0.93 2.20 c-0.88 2.10 -1.03 2.20 -2.93 2.20 -1.86 0 -2 -0.10 -1.66 -1.07z m10.94 -7.43 c0 -1.27 -1.47 -4.20 -2.15 -4.20 -0.54 0 -1.76 2.93 -1.76 4.35 0 0.29 0.83 0.54 1.95 0.54 1.32 0 1.95 -0.20 1.95 -0.68z"/>
  <path d="M658.71 266.42 c-1.71 -0.83 -3.76 -3.27 -3.32 -4.01 0.15 -0.20 0.93 -0.68 1.76 -1.03 1.37 -0.59 1.56 -0.54 2.49 0.73 1.95 2.39 5.72 2.78 6.84 0.64 0.73 -1.37 -0.49 -2.54 -3.37 -3.32 -3.66 -0.98 -5.47 -2 -6.20 -3.47 -1.51 -2.88 -0.44 -6.11 2.49 -7.52 2.64 -1.27 6.89 -0.83 9.19 0.93 2.05 1.56 2.15 2 0.68 3.27 -1.47 1.17 -1.71 1.17 -3.42 -0.29 -0.78 -0.68 -2.05 -1.22 -2.83 -1.22 -1.61 0 -3.13 1.27 -2.74 2.30 0.15 0.39 0.29 0.78 0.29 0.88 0 0.10 1.42 0.64 3.18 1.17 5.91 1.86 7.08 2.88 7.08 6.16 0 2.10 -1.12 3.96 -2.98 4.93 -1.86 0.93 -7.08 0.88 -9.14 -0.15z"/>
  <path d="M674.24 265.30 l0 -1.95 1.95 0 1.95 0 0 1.95 0 1.95 -1.95 0 -1.95 0 0 -1.95z"/>
  <path d="M465.62 216.69 l0 -16.37 4.15 0 4.15 0 0 16.37 0 16.37 -4.15 0 -4.15 0 0 -16.37z"/>
  <path d="M481.25 216.69 l0 -16.37 3.81 0.05 3.76 0 1.66 2.54 c2.98 4.59 10.02 14.02 10.41 14.02 0.20 0 0.39 -3.71 0.39 -8.31 l0 -8.31 4.15 0 4.15 0 0 16.37 0 16.37 -3.81 0 c-3.37 0 -3.86 -0.10 -4.45 -1.07 -1.71 -2.83 -10.94 -15.05 -11.34 -15.05 -0.24 0 -0.44 3.52 -0.44 8.06 l0 8.06 -4.15 0 -4.15 0 0 -16.37z"/>
  <path d="M516.43 216.73 l0 -16.42 6.25 0 c7.18 0 11.77 0.83 15.29 2.78 10.99 5.96 10.06 23.01 -1.51 28.39 -2.49 1.17 -3.32 1.27 -11.34 1.47 l-8.70 0.20 0 -16.42z m16.12 7.43 c2.59 -1.32 4.40 -4.40 4.40 -7.43 0 -2.35 -1.51 -5.57 -3.22 -6.79 -1.22 -0.93 -7.18 -2.05 -8.35 -1.61 -0.49 0.20 -0.64 2.25 -0.64 8.60 l0 8.31 2.83 0 c1.95 0 3.47 -0.34 4.98 -1.07z"/>
  <path d="M551.12 216.69 l0 -16.37 3.86 0 3.81 0 0.34 15.88 c0.20 8.70 0.24 16.07 0.05 16.37 -0.15 0.24 -2 0.49 -4.20 0.49 l-3.86 0 0 -16.37z"/>
  <path d="M562.94 232.66 c0.05 -0.24 2.98 -7.62 6.45 -16.42 l6.30 -15.93 4.06 0 c3.76 0 4.06 0.10 4.40 1.12 0.15 0.59 2.93 7.82 6.11 16.07 3.22 8.26 5.81 15.15 5.81 15.29 0 0.15 -1.95 0.24 -4.35 0.24 l-4.35 0 -1.07 -2.93 -1.07 -2.93 -5.96 0 -5.91 0 -1.03 2.83 -0.98 2.78 -4.30 0.15 c-2.44 0.10 -4.20 -0.05 -4.10 -0.29z m19.45 -12.65 c0 -1.07 -2.74 -7.96 -3.13 -7.82 -0.59 0.20 -3.22 7.48 -2.88 7.87 0.44 0.44 6.01 0.34 6.01 -0.05z"/>
  <path d="M253.09 216.44 l0 -2.44 98.94 0 98.94 0 0 2.44 0 2.44 -98.94 0 -98.94 0 0 -2.44z"/>
  <path d="M607.31 216.44 l0 -2.44 99.43 0 99.43 0 0 2.44 0 2.44 -99.43 0 -99.43 0 0 -2.44z"/>
  <path d="M619.77 186 c-3.32 -1.12 -4.93 -2.15 -7.18 -4.69 -3.57 -3.96 -3.81 -5.33 -3.81 -21.11 l0 -13.63 5.08 0 5.08 0 0.20 12.61 c0.20 14.12 0.49 15.44 3.57 16.90 2.05 0.98 3.32 0.98 5.37 0 3.08 -1.47 3.37 -2.78 3.57 -16.95 l0.20 -12.56 5.13 0 5.08 0 -0.15 14.56 c-0.15 14.22 -0.15 14.56 -1.32 16.90 -2.74 5.47 -7.43 8.21 -14.46 8.45 -2.69 0.10 -5.13 -0.10 -6.35 -0.49z"/>
  <path d="M691.29 185.51 c-2.78 -0.93 -8.21 -4.45 -9.04 -5.81 -0.24 -0.39 4.98 -7.23 5.52 -7.23 0.15 0 1.32 0.78 2.64 1.71 5.52 4.10 12.65 4.15 12.65 0.15 0 -1.27 -1.91 -2.30 -6.11 -3.37 -9.67 -2.49 -12.95 -5.86 -12.95 -13.24 0 -3.81 1.95 -7.48 5.03 -9.53 3.03 -2.05 5.08 -2.59 9.67 -2.59 5.37 0 9.63 1.66 13.29 5.13 1.22 1.17 1.32 1.42 0.68 2.15 -0.34 0.44 -1.71 2.05 -2.98 3.57 l-2.30 2.78 -2.20 -1.66 c-3.42 -2.59 -7.72 -3.42 -9.87 -1.91 -1.32 0.88 -1.37 2.35 -0.20 3.52 0.49 0.49 3.03 1.51 5.67 2.25 7.43 2.05 10.11 3.81 11.73 7.72 1.12 2.59 1.03 7.77 -0.15 10.06 -1.27 2.49 -3.66 4.74 -6.35 6.06 -3.42 1.66 -10.41 1.76 -14.76 0.24z"/>
  <path d="M286.31 166.41 l0 -19.84 4.79 0 c4.40 0 4.79 0.10 5.42 1.12 0.34 0.59 3.42 4.89 6.84 9.53 l6.16 8.50 0.24 -9.48 0.24 -9.43 5.03 -0.15 4.98 -0.15 0 14.36 c0 7.92 0.15 16.71 0.29 19.54 l0.34 5.18 -4.54 0.15 c-2.88 0.10 -4.79 -0.05 -5.08 -0.39 -0.29 -0.29 -3.52 -4.49 -7.08 -9.38 -3.62 -4.89 -6.79 -8.89 -6.99 -8.89 -0.20 0 -0.39 4.20 -0.39 9.28 l0 9.28 -4.01 0 c-2.25 0 -4.54 0.15 -5.13 0.29 l-1.12 0.29 0 -19.84z"/>
  <path d="M333.41 185.71 c-0.10 -0.10 -0.20 -6.79 -0.20 -14.80 l0 -14.56 -4.89 0 -4.89 0 0 -4.89 0 -4.89 15.15 0 15.15 0 0 4.89 0 4.89 -4.89 0 -4.89 0 -0.10 14.71 -0.15 14.71 -5.03 0.05 c-2.78 0.05 -5.18 0 -5.28 -0.10z"/>
  <path d="M395.16 185.56 c-0.10 -0.34 -0.10 -9.28 0 -19.79 l0.20 -19.20 14.12 0 14.12 0 0 4.89 0 4.89 -9.28 0 -9.28 0 0 2.44 0 2.44 7.96 0.10 7.92 0.15 0 4.64 0 4.64 -7.96 0.15 -7.96 0.15 0.15 2.78 0.15 2.78 8.55 0.10 c4.69 0 8.84 0.10 9.19 0.10 0.44 0.05 0.59 1.27 0.59 4.45 l0 4.40 -13.05 0 c-7.23 0 -13.58 0.15 -14.12 0.29 -0.64 0.15 -1.12 0 -1.27 -0.39z"/>
  <path d="M428.68 185.71 c-0.10 -0.10 -0.20 -8.99 -0.20 -19.69 l0 -19.45 9.67 0 c11.04 0 13.39 0.44 16.56 3.13 2.98 2.59 4.30 5.96 4.25 11.04 0 4.93 -1.12 7.77 -4.20 10.55 -2.88 2.59 -4.89 3.22 -10.50 3.52 l-4.98 0.24 -0.15 5.42 -0.15 5.42 -5.03 0 c-2.78 0 -5.13 -0.10 -5.28 -0.20z m17.39 -20.91 c2.64 -1.51 3.22 -5.03 1.27 -7.33 -1.03 -1.17 -1.56 -1.37 -4.64 -1.51 l-3.47 -0.20 0 4.64 c0 3.27 0.20 4.74 0.64 4.89 1.37 0.59 4.93 0.29 6.20 -0.49z"/>
  <path d="M486.87 185.76 l-2.98 -0.15 -3.37 -5.57 c-3.32 -5.62 -3.32 -5.62 -5.23 -5.62 l-1.86 0 0 5.62 0 5.62 -5.13 0 -5.13 0 0 -19.54 0 -19.54 10.26 0 c9.23 0 10.50 0.10 13 1.03 5.62 2.10 8.31 6.74 7.92 13.63 -0.24 4.45 -1.76 7.52 -4.79 9.72 l-1.86 1.37 1.51 2.39 c0.83 1.32 2.69 4.25 4.10 6.50 1.47 2.25 2.54 4.15 2.39 4.30 -0.29 0.29 -5.08 0.44 -8.84 0.24z m-6.50 -21.11 c2.20 -0.64 3.32 -2.10 3.32 -4.30 0 -3.37 -1.81 -4.49 -7.13 -4.49 l-3.13 0 0 4.64 0 4.64 2.59 0 c1.37 0 3.37 -0.24 4.35 -0.49z"/>
  <path d="M533.53 166.41 l0 -19.84 4.79 0 4.74 0 7.08 9.63 7.08 9.63 0.15 -9.63 0.10 -9.63 5.13 0 5.13 0 -0.10 19.64 -0.15 19.69 -4.30 0 -4.35 0 -7.04 -9.38 c-3.86 -5.18 -7.28 -9.43 -7.57 -9.43 -0.34 0 -0.39 3.03 -0.24 9.28 l0.29 9.28 -4.59 0 c-2.54 0 -4.93 0.15 -5.37 0.29 -0.68 0.29 -0.78 -1.66 -0.78 -19.54z"/>
  <path d="M574.28 185.71 c-0.10 -0.10 -0.20 -8.99 -0.20 -19.69 l0 -19.45 14.66 0 14.66 0 0 4.89 0 4.89 -9.53 0 -9.53 0 0 2.44 0 2.44 8.31 0 8.31 0 0 4.89 0 4.89 -8.16 0.10 -8.21 0.15 -0.15 2.49 c-0.15 2.44 -0.10 2.49 1.42 2.83 0.83 0.15 5.13 0.29 9.58 0.29 l8.01 0 -0.15 4.45 -0.15 4.40 -14.32 0.10 c-7.92 0.05 -14.46 0 -14.56 -0.10z"/>
  <path d="M649.23 185.76 l-1.37 -0.15 0 -19.54 0 -19.49 10.50 0 c12.31 0 14.41 0.49 17.74 4.10 2.39 2.64 3.22 4.98 3.27 9.33 0 4.74 -1.12 7.48 -4.25 10.21 l-2.49 2.20 4.20 6.60 4.20 6.60 -5.72 0.15 c-6.74 0.20 -6.25 0.49 -10.31 -6.69 l-2.64 -4.64 -2.10 0 -2.15 0 0 5.62 c0 3.08 -0.15 5.62 -0.34 5.67 -1.76 0.15 -7.52 0.20 -8.55 0.05z m18.08 -22.28 c1.71 -1.66 1.81 -4.69 0.24 -6.25 -0.88 -0.88 -1.81 -1.07 -5.28 -1.27 l-4.15 -0.24 0 4.40 c0 2.39 0.15 4.54 0.39 4.74 0.20 0.24 1.95 0.29 3.91 0.15 3.08 -0.15 3.81 -0.39 4.89 -1.51z"/>
  <path d="M719.58 185.76 l-1.37 -0.15 0 -19.54 0 -19.49 5.37 0 5.37 0 0 7.33 0 7.33 6.11 0 6.11 0 0 -7.33 0 -7.33 5.37 0 5.37 0 0 19.54 0 19.54 -5.37 0 -5.37 0 0 -7.33 0 -7.33 -6.11 0 -6.11 0 0 7.28 0 7.33 -4.01 0.15 c-2.25 0.10 -4.64 0.10 -5.37 0z"/>
  <path d="M761.60 185.76 l-3.32 -0.15 0 -19.49 0 -19.54 5.37 0 5.37 0 0 19.49 0 19.49 -2.05 0.15 c-1.17 0.10 -3.57 0.15 -5.37 0.05z"/>
  <path d="M775.72 185.86 c-0.20 -0.20 -0.34 -9.14 -0.34 -19.84 l0 -19.45 9.92 0 c11.24 0 13.05 0.34 16.42 3.27 2.93 2.49 4.06 5.03 4.35 9.58 0.29 4.54 -0.39 7.13 -2.59 10.16 -2.54 3.52 -5.86 4.93 -12.26 5.23 l-5.08 0.24 0 5.28 0 5.33 -4.35 0 c-2.39 0 -4.69 0.10 -5.03 0.24 -0.39 0.15 -0.83 0.10 -1.03 -0.05z m17 -20.91 c1.95 -0.83 2.69 -2.05 2.69 -4.59 0 -2.93 -1.56 -4.06 -5.86 -4.40 l-3.42 -0.24 0 4.98 0 4.93 2.44 0 c1.37 0 3.22 -0.29 4.15 -0.68z"/>
  <path d="M253.09 166.12 l0 -19.54 13.92 0 13.92 0 0 4.89 0 4.89 -8.55 0 -8.55 0 0 2.44 0 2.44 7.57 0 7.57 0 0 4.89 0 4.89 -7.57 0 -7.57 0 0 2.69 0 2.69 5.52 0.10 c2.98 0.10 6.84 0.10 8.55 0.05 l3.03 -0.05 0 4.59 0 4.59 -13.92 0 -13.92 0 0 -19.54z"/>
  <path d="M357.64 166.12 l0 -19.54 10.65 0 c11.38 0.05 12.70 0.24 16.17 2.64 5.77 4.01 6.64 15.10 1.56 20.23 -0.98 0.98 -2.15 2.05 -2.64 2.30 -0.83 0.44 -0.49 1.12 3.27 6.99 2.30 3.62 4.20 6.64 4.20 6.74 0 0.10 -2.69 0.20 -5.96 0.20 l-6.01 0 -3.22 -5.52 -3.18 -5.47 -2.30 -0.15 -2.30 -0.15 0 5.62 0 5.67 -5.13 0 -5.13 0 0 -19.54z m17.69 -1.47 c2.25 -0.64 3.32 -2.10 3.32 -4.40 0 -1.27 -0.34 -2.10 -1.27 -2.98 -1.12 -1.03 -1.71 -1.17 -5.23 -1.17 l-4.01 0 -0.15 4.10 c-0.10 2.98 0.05 4.25 0.49 4.49 0.88 0.59 4.69 0.54 6.84 -0.05z"/>
  <path d="M499.82 166.12 l0 -19.54 14.17 0 14.17 0 0 4.89 0 4.89 -9.04 0 -9.04 0 0 2.44 0 2.44 7.96 0.10 7.92 0.15 0 4.64 0 4.64 -7.96 0.15 -7.96 0.15 0.15 2.78 0.15 2.78 8.94 0.15 8.89 0.10 0 4.40 0 4.40 -14.17 0 -14.17 0 0 -19.54z"/>
 </g>
 <g fill="#cb9e47">
  <path d="M100.21 273.56 c-3.62 -0.64 -8.26 -2.93 -11.24 -5.62 -2.64 -2.35 -5.72 -7.92 -6.01 -10.70 l-0.15 -1.47 22.13 -0.15 22.13 -0.10 -0.34 1.81 c-1.03 6.01 -6.94 13.09 -12.70 15.29 -3.32 1.27 -9.67 1.66 -13.83 0.93z"/>
  <path d="M118.38 215.61 l-4.54 -0.20 0 -8.50 0 -8.55 10.80 -0.10 10.75 -0.15 1.71 -5.18 c2.05 -6.40 6.01 -14.32 9.77 -19.49 1.51 -2.15 5.37 -6.69 8.55 -10.11 9.72 -10.41 14.36 -17.83 17.98 -28.73 2.93 -8.79 3.66 -13.58 3.62 -23.94 0 -11.87 -0.98 -16.56 -6.06 -28.88 l-0.64 -1.56 6.11 -6.16 c4.20 -4.30 6.35 -6.16 6.99 -6.06 1.86 0.29 7.67 15.34 9.58 24.67 3.47 17.20 1.71 34.84 -5.18 51.59 -2.20 5.42 -3.22 7.38 -6.69 13.05 -3.27 5.33 -6.11 8.70 -13.78 16.61 -13.63 13.97 -18.76 22.67 -21.40 36.06 l-1.12 5.72 -10.99 0.05 c-6.01 0 -13 -0.05 -15.44 -0.15z"/>
  <path d="M102.11 193.14 c0 -0.24 -0.54 -6.99 -1.17 -15.05 -0.68 -8.06 -1.37 -16.71 -1.56 -19.20 -0.24 -3.76 -0.44 -4.49 -1.07 -4.40 -0.49 0.10 -2.35 3.81 -4.98 10.16 -6.35 15.10 -10.31 24.14 -10.75 24.58 -0.20 0.24 -1.07 0.05 -1.95 -0.39 -1.27 -0.68 -1.51 -1.03 -1.37 -2.10 0.24 -1.47 7.08 -33.37 7.52 -35.13 0.24 -0.88 0.10 -1.12 -0.68 -1.12 -0.73 0 -3.03 2.35 -7.48 7.72 -11.82 14.02 -13.34 15.73 -13.63 15.73 -0.15 0 -1.03 -0.73 -1.91 -1.66 l-1.66 -1.71 6.50 -11.87 c3.57 -6.50 6.89 -12.51 7.38 -13.34 1.17 -1.91 1.17 -2.20 -0.15 -2.20 -1.07 0 -9.97 5.37 -13.39 8.16 -1.12 0.88 -2.25 1.61 -2.54 1.61 -0.29 0 -1.12 0.54 -1.91 1.12 -2.39 2 -3.32 1.95 -5.33 -0.24 l-1.76 -1.95 6.01 -6.11 c8.65 -8.65 23.79 -22.82 24.67 -23.01 0.49 -0.10 5.18 4.30 11.87 11.19 l11.14 11.43 1.66 -1.32 c0.93 -0.68 9.63 -9.09 19.30 -18.66 l17.69 -17.39 9.43 0.78 c5.23 0.39 12.36 0.98 15.83 1.32 l6.35 0.59 0.15 2.05 c0.15 1.81 0 2.10 -0.98 2.35 -0.64 0.15 -7.23 1.12 -14.71 2.15 -13.05 1.81 -15.68 2.44 -14.02 3.47 0.39 0.24 6.45 2.93 13.44 5.91 6.99 2.98 12.75 5.52 12.85 5.57 0.39 0.34 -0.98 4.15 -1.51 4.15 -0.34 0 -6.79 -1.03 -14.41 -2.30 -8.60 -1.42 -13.97 -2.10 -14.27 -1.81 -0.29 0.29 3.42 4.01 9.77 9.92 5.67 5.23 10.26 9.77 10.26 10.06 0 0.29 -0.73 1.37 -1.56 2.39 l-1.61 1.81 -2.69 -1.66 c-10.06 -6.25 -21.25 -12.56 -21.79 -12.36 -0.44 0.15 0.39 2.10 2.78 6.45 1.86 3.42 4.98 9.23 6.94 12.95 l3.52 6.74 -1.66 1.71 c-0.93 0.98 -1.91 1.76 -2.10 1.76 -0.20 0 -4.59 -5.03 -9.72 -11.24 -8.94 -10.80 -11.24 -12.95 -10.46 -9.87 0.20 0.73 1.42 6.60 2.74 13.05 2.44 11.82 4.64 21.74 5.13 23.31 0.20 0.64 -0.20 1.07 -1.47 1.71 -0.98 0.44 -1.86 0.68 -2 0.54 -0.24 -0.24 -9.43 -21.64 -13 -30.29 -2.74 -6.74 -3.47 -6.84 -3.96 -0.64 -0.20 2.44 -0.83 10.36 -1.37 17.59 -0.59 7.28 -1.12 14.12 -1.27 15.29 l-0.24 2.05 -2.44 0 c-1.32 0 -2.39 -0.15 -2.39 -0.34z"/>
  <path d="M263.49 159.03 c0 -1.32 0.10 -1.86 0.20 -1.07 0.10 0.73 0.10 1.81 0 2.44 -0.10 0.59 -0.20 0 -0.20 -1.37z"/>
  <path d="M155.56 94.59 c3.47 -3.76 3.91 -4.10 6.06 -4.40 1.27 -0.15 3.47 -0.73 4.89 -1.27 3.32 -1.27 4.30 -1.22 4.69 0.10 0.34 1.42 -0.20 1.86 -4.10 3.57 -1.76 0.78 -4.69 2.10 -6.60 2.93 -4.10 1.91 -7.43 3.18 -8.11 3.18 -0.29 0 1.12 -1.86 3.18 -4.10z"/>
 </g>
</svg>