<svg xmlns="http://www.w3.org/2000/svg" viewBox="0 0 100 100" width="100" height="100">
  <rect width="100" height="100" rx="16" fill="#F0F9FF" stroke="#0284C7" stroke-width="2"/>
  <circle cx="50" cy="42" r="18" fill="none" stroke="#0369A1" stroke-width="3"/>
  <path d="M50 15 L50 24 M50 60 L50 69 M23 42 L32 42 M68 42 L77 42" stroke="#F59E0B" stroke-width="3" stroke-linecap="round"/>
  <path d="M31 23 L37 29 M69 23 L63 29 M31 61 L37 55 M69 61 L63 55" stroke="#F59E0B" stroke-width="3" stroke-linecap="round"/>
  <path d="M38 75 C 38 75, 42 85, 50 85 C 58 85, 62 75, 62 75" fill="none" stroke="#0284C7" stroke-width="4" stroke-linecap="round"/>
  <path d="M43 78 L57 78 M45 81 L55 81" stroke="#0284C7" stroke-width="2"/>
  <text x="50" y="52" font-family="system-ui, sans-serif" font-size="9" font-weight="900" text-anchor="middle" fill="#0369A1">INSPIRE</text>
</svg>
