<svg xmlns="http://www.w3.org/2000/svg" viewBox="0 0 400 120" width="100%" height="100%">
  <defs>
    <linearGradient id="si-orange" x1="0%" y1="0%" x2="100%" y2="0%">
      <stop offset="0%" stop-color="#FF9933" />
      <stop offset="100%" stop-color="#FF6600" />
    </linearGradient>
    <linearGradient id="si-green" x1="0%" y1="0%" x2="100%" y2="0%">
      <stop offset="0%" stop-color="#128807" />
      <stop offset="100%" stop-color="#006600" />
    </linearGradient>
  </defs>
  <!-- Background Badge Container -->
  <rect width="400" height="120" rx="16" fill="#ffffff" />
  <!-- Wing Graphic Saffron & Green -->
  <g transform="translate(20, 20)">
    <path d="M 15 15 C 35 5, 55 15, 65 35 C 50 40, 30 35, 15 15 Z" fill="url(#si-orange)" />
    <path d="M 10 38 C 30 28, 50 38, 60 58 C 45 60, 25 55, 10 38 Z" fill="#000080" />
    <path d="M 5 60 C 25 50, 45 60, 55 80 C 40 82, 20 75, 5 60 Z" fill="url(#si-green)" />
    <circle cx="65" cy="18" r="5" fill="#FF9933" />
  </g>
  <!-- Typography -->
  <text x="100" y="55" font-family="system-ui, -apple-system, sans-serif" font-weight="900" font-size="28" fill="#111827">Startup India</text>
  <text x="100" y="78" font-family="system-ui, -apple-system, sans-serif" font-weight="700" font-size="12" letter-spacing="3" fill="#FF9933">HUB &amp; FACILITATION</text>
  <line x1="100" y1="88" x2="360" y2="88" stroke="#128807" stroke-width="2" />
</svg>
